<svg width="47" height="42" viewBox="0 0 47 42" fill="none" xmlns="http://www.w3.org/2000/svg">
<path d="M23.1672 31.3411C26.5147 27.6903 30.1656 24.0386 33.8172 20.9961C30.1656 17.9527 26.5147 14.301 23.1672 10.6502L23.1672 8.24392e-05C28.9489 6.39012 34.7306 12.171 41.1206 17.0402L46.2932 20.9961L40.8156 24.9511C34.7306 29.8203 28.6447 35.6012 23.1672 41.9912V31.3411Z" fill="#8CC63F"/>
<path d="M23.126 10.6591C19.7785 14.31 16.1276 17.9617 12.4759 21.0042C16.1276 24.0475 19.7785 27.6992 23.126 31.3501V42.0002C17.3443 35.6101 11.5634 29.8292 5.17335 24.96L0 21.0042L5.17335 17.0491C11.2584 12.18 17.3443 6.39908 23.126 0.0090332V10.6591Z" fill="#547726"/>
</svg>
