<svg width="174" height="492" viewBox="0 0 174 492" fill="none" xmlns="http://www.w3.org/2000/svg">
<path fill-rule="evenodd" clip-rule="evenodd" d="M-243.365 203.347C-245.94 202.416 -248.244 201.047 -250.204 199.358C-252.16 197.673 -253.786 195.668 -254.802 193.409C-255.818 191.146 -256.234 188.612 -255.453 185.957C-254.676 183.296 -252.679 180.491 -248.7 178.097C-252.887 176.661 -257.237 175.766 -261.821 175.396C-265.457 175.098 -269.243 175.184 -273.177 175.73C-277.111 176.277 -281.19 177.275 -285.377 178.879C-289.858 180.622 -294.469 183.034 -298.932 186.408C-303.042 189.525 -306.796 193.581 -309.682 198.523C-312.569 203.464 -314.588 209.286 -315.057 215.809C-315.175 222.055 -313.86 228.185 -311.286 233.822C-308.711 239.455 -304.885 244.595 -300.152 248.755C-292.726 255.53 -283.588 260.833 -273.452 264.081C-263.94 267.116 -253.817 268.516 -243.641 268.588C-234.124 268.661 -224.48 267.771 -214.828 266.095C-205.175 264.419 -195.513 261.958 -185.978 258.967C-173.751 255.182 -161.425 251.176 -148.913 247.544C-134.499 243.366 -119.779 239.554 -104.792 236.781C-90.0171 234.061 -75.0843 232.232 -60.3367 232.607C-47.0254 233.009 -33.931 234.924 -22.7426 240.177C-11.2382 245.498 -0.289215 252.057 9.47629 259.79C19.2418 267.518 27.8148 276.421 34.6353 286.38C41.1351 295.708 46.0992 306.006 49.6133 316.689C53.1229 327.371 55.1826 338.442 55.9099 349.386C56.7861 362.382 55.8376 375.25 53.674 387.649C51.5059 400.048 48.1227 411.977 44.0576 423.179C38.3527 438.857 31.2612 453.126 23.7542 465.94C16.2516 478.75 8.3335 490.11 0.781281 500.061L-6.40057 494.008C12.1909 471.857 27.7109 447.258 37.883 420.794C46.6909 397.758 51.7137 373.403 50.2592 349.712C48.9855 328.107 42.3005 306.752 30.2314 289.416C17.1595 270.147 -2.84579 255.309 -24.983 245.092C-35.2318 240.24 -47.5855 238.533 -60.4496 238.145C-74.5603 237.833 -89.055 239.671 -103.721 242.431C-118.212 245.191 -132.688 249.012 -147.205 253.317C-159.342 256.917 -171.579 260.973 -184.099 264.934C-202.736 270.937 -222.773 275.183 -243.682 275.188C-254.075 275.188 -264.852 273.833 -275.503 270.513C-286.127 267.179 -296.19 261.592 -304.786 253.832C-315.044 245.078 -322.045 231.5 -322 215.47C-320.816 200.966 -313.621 188.712 -303.169 180.925C-298.3 177.325 -293.114 174.524 -287.78 172.465C-281.867 170.179 -276.894 169.113 -272.657 168.485C-268.421 167.857 -264.902 167.695 -261.754 167.726C-259.193 167.735 -256.875 167.848 -254.594 168.061C-252.313 168.268 -250.068 168.576 -247.674 169.032C-245.281 169.488 -242.737 170.098 -239.896 170.96C-237.051 171.828 -233.907 172.948 -230.361 174.497C-227.159 175.897 -224.471 177.74 -222.384 179.827C-220.298 181.909 -218.807 184.236 -217.913 186.634C-216.124 191.436 -216.729 196.481 -219.435 201.129C-220.785 203.45 -222.452 204.9 -224.291 205.754C-226.129 206.603 -228.139 206.852 -230.235 206.734C-234.435 206.495 -239.02 204.81 -243.37 203.347H-243.365Z" fill="#8CC63F" fill-opacity="0.08"/>
<path fill-rule="evenodd" clip-rule="evenodd" d="M-16.9971 157.554C-17.8463 156.466 -18.6187 155.413 -19.4272 154.469C-20.2312 153.521 -21.0623 152.671 -21.9476 151.894C-23.4518 150.548 -25.0372 149.207 -26.7762 148.06C-28.5152 146.912 -30.3897 145.959 -32.3139 145.318C-34.2381 144.676 -36.212 144.351 -38.0819 144.401C-39.9519 144.451 -41.7135 144.875 -43.168 145.62C-43.9945 146.045 -44.9883 146.705 -46.0362 147.459C-47.0841 148.209 -48.1907 149.062 -49.2703 149.812C-51.4248 151.316 -53.5207 152.455 -55.0428 151.068C-55.6436 150.521 -56.2579 148.886 -56.678 146.501C-57.098 144.116 -57.2968 140.977 -57.0935 137.531C-56.8993 133.99 -56.294 130.11 -55.3139 126.356C-54.3337 122.602 -52.9877 118.98 -51.5784 115.868C-51.208 115.05 -50.7744 114.115 -50.2595 113.067C-49.0309 110.538 -47.3325 107.353 -44.7624 103.753C-42.1968 100.154 -38.764 96.1335 -33.9535 92.2128C-30.7149 89.6066 -26.9027 87.1584 -22.4761 85.1394C-18.0541 83.1158 -13.0177 81.5259 -7.40326 80.7264C-2.13657 80.0669 3.36951 80.0353 8.94786 80.7354C14.5217 81.4356 20.1633 82.8674 25.6106 85.0671C31.7581 87.5153 37.8108 90.6635 43.6104 94.4397C49.4146 98.2203 54.9704 102.633 60.1377 107.507C65.8516 112.864 71.1951 118.944 76.001 125.706C80.807 132.467 85.0754 139.911 88.6393 147.911C91.4081 154.121 93.5265 160.111 95.1752 165.82C97.4878 173.81 99.001 181.209 100.035 188.115C101.07 195.017 101.621 201.436 101.874 207.506C102.384 219.643 101.756 230.402 100.546 241.04C99.4211 250.914 97.8537 260.747 95.654 271.578C93.4588 282.41 90.6357 294.24 86.6022 307.998C82.5686 321.752 77.3154 337.448 69.849 355.764C66.1136 364.924 61.818 374.735 56.8178 385.241C51.8176 395.747 46.1128 406.949 39.5723 418.842L52.2422 425.771C83.079 370.173 106.373 307.722 109.81 241.455C111.129 216.116 108.821 189.723 100.767 164.022C93.8563 141.858 81.6787 120.66 63.9319 103.505C54.2929 94.1009 42.4767 85.3607 28.1943 79.0235C17.6564 74.2898 5.2666 71.8236 -8.13951 72.7993C-19.4859 73.8924 -30.2271 77.8988 -39.4731 84.4528C-41.7858 86.1241 -43.972 87.9083 -46.0226 89.7918C-49.2522 92.7549 -51.9578 95.7676 -54.2705 98.7443C-56.5831 101.721 -58.4937 104.67 -60.1108 107.548C-63.0558 112.729 -65.1155 117.665 -66.6241 122.381C-68.1328 127.101 -69.0904 131.605 -69.6459 136.04C-70.2964 140.923 -70.4138 145.765 -69.9621 150.783C-69.5104 155.806 -68.4986 161.019 -66.6016 166.606C-65.3684 170.152 -63.7514 173.756 -61.6149 177.383C-59.894 180.297 -57.7033 183.093 -55.1558 185.586C-52.6128 188.079 -49.7084 190.265 -46.6189 192.031C-42.251 194.38 -37.8019 195.803 -33.687 196.39C-29.5676 196.977 -25.7825 196.743 -22.589 195.957C-19.3956 195.166 -16.7939 193.838 -14.8923 192.235C-12.9952 190.631 -11.7937 188.766 -11.2833 186.783C-10.7051 184.533 -10.3528 181.959 -10.3167 179.289C-10.285 176.615 -10.5651 173.846 -11.1342 171.186C-11.7033 168.526 -12.557 165.978 -13.5598 163.747C-14.0611 162.631 -14.5987 161.592 -15.1316 160.635C-15.6692 159.673 -16.2067 158.801 -16.69 157.961C-16.7893 157.825 -16.8932 157.69 -16.9971 157.554Z" fill="#8CC63F" fill-opacity="0.08"/>
<path fill-rule="evenodd" clip-rule="evenodd" d="M102.072 201.585C97.5283 154.361 94.3123 106.003 103.92 59.3795C105.754 50.4451 108.116 41.4972 112.086 33.2132C112.976 31.3613 113.956 29.5274 115.131 27.802C115.411 27.3864 115.709 26.9754 116.034 26.5734C116.115 26.4695 116.201 26.3656 116.296 26.2617C116.45 26.3566 116.603 26.4514 116.757 26.5508C116.806 26.5824 116.861 26.6186 116.915 26.6502C117.082 26.8173 117.254 26.9799 117.421 27.147C117.904 27.6213 118.387 28.0956 118.875 28.5744C118.844 28.6105 118.803 28.6602 118.758 28.7234C118.514 29.0261 118.279 29.3648 118.03 29.7307C117.014 31.2574 116.138 32.9467 115.311 34.7128C111.607 42.6219 109.444 51.3033 107.714 60.1158C98.7208 106.143 102.519 153.931 107.529 200.993L102.077 201.58L102.072 201.585Z" fill="#8CC63F" fill-opacity="0.08"/>
<path fill-rule="evenodd" clip-rule="evenodd" d="M173.959 3.31149C173.959 3.31149 173.263 3.00434 171.971 2.53459C170.675 2.06935 168.778 1.45053 166.357 0.935608C163.931 0.420684 160.986 0.0141643 157.648 0.000613394C154.315 -0.017453 150.588 0.361964 146.699 1.35116C142.508 2.52104 138.361 4.30069 134.58 6.58171C130.8 8.86274 127.39 11.6316 124.535 14.6037C120.411 18.818 117.276 23.3439 115.099 27.2374C112.926 31.1355 111.68 34.3831 111.047 36.1221C111.007 36.2351 110.966 36.3525 110.93 36.4654C110.031 39.031 109.692 42.0212 110.009 44.9707C110.32 47.9202 111.287 50.8201 112.773 53.205C114.263 55.5944 116.26 57.4644 118.527 58.562C120.795 59.6551 123.32 59.9803 125.944 59.6054C128.6 59.2305 130.746 58.3362 132.494 57.3425C134.246 56.3442 135.61 55.2331 136.676 54.0948C138.799 51.8228 139.739 49.4108 139.549 46.6239C139.517 46.1135 139.4 45.5489 139.228 44.912C138.673 42.7258 137.476 39.7402 136.663 36.1899C136.252 34.4148 135.935 32.5086 135.804 30.5664C135.669 28.6241 135.719 26.6502 135.99 24.7667C136.292 22.6889 136.875 20.715 137.706 19.0799C138.944 16.6498 140.525 14.3914 142.368 12.3995C144.21 10.403 146.315 8.67755 148.569 7.26376C151.758 5.32602 155.114 4.09291 158.222 3.38376C161.325 2.67461 164.184 2.48038 166.551 2.512C168.918 2.54814 170.797 2.8056 172.066 3.01338C173.331 3.22115 173.995 3.37021 173.959 3.31149Z" fill="#8CC63F" fill-opacity="0.08"/>
<path fill-rule="evenodd" clip-rule="evenodd" d="M173.146 259.992C173.146 259.992 172.441 259.365 171.072 258.294C169.699 257.219 167.653 255.701 164.871 254.057C162.093 252.409 158.57 250.638 154.288 249.184C150.006 247.734 144.956 246.613 139.233 246.32C133.551 246.37 127.85 247.435 122.588 249.436C117.321 251.433 112.506 254.36 108.468 257.86C102.863 262.73 98.6035 268.001 95.5004 272.68C92.3973 277.36 90.4234 281.439 89.1994 284.203C88.7883 285.102 88.4495 285.87 88.1876 286.479C86.8686 289.537 86.0872 293.083 85.9607 296.642C85.8343 300.202 86.3537 303.77 87.4829 306.918C88.6076 310.062 90.3286 312.79 92.5102 314.791C94.6919 316.792 97.3207 318.071 100.293 318.482C103.26 318.897 105.844 318.436 108.053 317.479C110.262 316.526 112.1 315.071 113.609 313.355C115.113 311.643 116.292 309.665 117.163 307.573C118.035 305.482 118.604 303.278 118.857 301.046C119.015 299.655 118.939 298.02 118.767 296.177C118.487 292.65 117.705 288.336 117.507 283.711C117.407 281.398 117.457 279.013 117.751 276.66C118.049 274.306 118.591 271.985 119.408 269.83C120.149 267.87 121.152 266.05 122.34 264.532C124.427 261.867 126.992 259.523 129.887 257.671C132.783 255.819 136.012 254.455 139.395 253.628C144.482 252.549 149.405 252.607 153.691 253.181C157.978 253.759 161.641 254.843 164.546 255.932C167.445 257.02 169.6 258.113 171.027 258.877C172.455 259.64 173.168 260.074 173.146 259.997V259.992Z" fill="#8CC63F" fill-opacity="0.08"/>
<path fill-rule="evenodd" clip-rule="evenodd" d="M41.0494 227.119C41.0494 227.119 42.0386 227.363 43.8137 227.85C45.5843 228.334 48.1364 229.061 51.253 230.082C57.4818 232.132 65.9736 235.421 74.655 240.425C79.0319 242.928 83.4133 245.977 87.4604 249.486C91.5075 252.996 95.2068 256.966 98.337 261.117C102.127 266.28 104.756 271.529 106.485 275.978C108.215 280.427 109.074 284.072 109.516 286.177C109.706 287.067 109.851 287.988 109.945 288.928C110.266 292.487 109.914 296.222 108.943 299.642C107.972 303.061 106.386 306.164 104.403 308.63C102.416 311.097 100.04 312.93 97.5104 313.983C94.981 315.035 92.298 315.311 89.6014 314.769C86.7241 314.195 84.4928 312.921 82.7538 311.336C81.0148 309.746 79.7636 307.84 78.8783 305.857C77.993 303.874 77.469 301.819 77.2206 299.813C76.9677 297.808 76.9857 295.857 77.2387 293.96C77.2793 293.63 77.3426 293.291 77.4193 292.943C77.9704 290.757 79.1764 287.916 80.1701 284.384C81.1638 280.852 81.9046 276.624 81.7646 272.306C81.62 267.585 80.4186 262.829 78.4627 259.202C76.1275 254.875 73.169 250.936 70.0297 247.558C66.5427 243.781 62.8569 240.615 59.3834 238.009C55.9054 235.403 52.6397 233.347 49.8754 231.757C47.1156 230.168 44.8616 229.038 43.3259 228.284C41.7902 227.53 40.9726 227.15 41.0494 227.119Z" fill="#8CC63F" fill-opacity="0.08"/>
<path fill-rule="evenodd" clip-rule="evenodd" d="M109.71 452.511C108.893 450.619 108.351 449.02 108.071 447.592C107.619 445.501 107.786 443.834 108.346 442.393C108.906 440.953 109.869 439.747 111.011 438.762C112.159 437.782 113.496 437.032 114.787 436.549C116.079 436.061 117.317 435.839 118.225 435.848C119.146 435.857 120.519 436.079 121.78 436.142C123.044 436.205 124.201 436.101 124.661 435.306C125.578 433.744 125.194 431.255 124.07 428.572C122.94 425.884 121.052 423.057 119.3 420.631C119.273 420.595 119.246 420.554 119.218 420.518C118.143 419.037 117.123 417.889 116.066 416.855C115.009 415.821 113.907 414.899 112.57 413.951C111.233 412.998 109.661 412.008 107.574 410.96C105.487 409.917 102.89 408.797 99.3758 407.925C96.1462 407.234 92.334 406.818 87.8984 407.144C83.4628 407.469 78.3723 408.553 73.0379 410.911C69.989 412.221 66.8226 413.892 63.6202 416.033C60.4177 418.174 57.1791 420.785 54.0398 423.928C51.4381 426.544 48.8816 429.462 46.3837 432.673C43.8859 435.885 41.4423 439.39 39.0212 443.121C34.3011 450.343 29.3506 458.514 23.9348 467.593C21.2247 472.137 18.3971 476.902 15.3708 481.853C12.349 486.808 9.1375 491.953 5.61433 497.224L-1.44104 492.508C9.84214 475.606 19.9148 456.897 32.1691 438.527C36.6544 431.715 41.912 424.701 48.5383 418.215C54.618 412.293 61.9489 407.338 70.3187 403.973C79.2124 400.188 89.9717 398.869 101.16 401.651C106.621 403.322 111.499 405.883 115.686 409.086C119.16 411.751 121.68 414.416 123.672 416.918C125.357 419.009 126.707 420.934 127.873 422.763C129.038 424.588 130.018 426.322 130.895 428.061C132.647 431.539 134.029 435.049 135.141 439.444C135.262 439.909 135.38 440.383 135.497 440.871C136.017 443.026 136.085 445.28 135.782 447.448C135.479 449.611 134.815 451.689 133.907 453.546C132.101 457.254 129.345 460.014 126.825 461.419C124.743 462.579 122.773 462.945 120.998 462.81C119.223 462.674 117.638 462.037 116.228 461.098C114.819 460.158 113.59 458.912 112.511 457.462C111.431 456.012 110.505 454.35 109.71 452.516V452.511Z" fill="#8CC63F" fill-opacity="0.08"/>
<path fill-rule="evenodd" clip-rule="evenodd" d="M10.199 476.139C11.3508 464.187 4.59356 453.572 -0.469867 443.22C-10.5606 422.591 -12.4848 398.11 -7.15486 375.656C-5.26228 370.895 -3.76268 365.651 0.126362 362.069C5.68665 388.683 28.1265 406.642 32.5079 432.695C34.8386 446.553 27.6432 460.605 18.7133 471.31C17.4622 472.805 17.024 474.982 17.426 476.938" fill="#8CC63F" fill-opacity="0.08"/>
<path fill-rule="evenodd" clip-rule="evenodd" d="M17.3492 75.6131C17.3492 75.6131 16.2922 75.8977 14.3861 76.3764C12.4754 76.8552 9.71562 77.5192 6.27827 78.2193C2.84092 78.9195 -1.27847 79.6467 -5.8857 80.1977C-10.4974 80.7488 -15.597 81.1147 -20.954 81.1056C-25.7419 81.1282 -31.2074 80.5862 -36.9799 79.0821C-41.42 78.1606 -46.6009 75.5408 -51.7411 71.1007C-56.7323 66.2993 -59.4514 60.0389 -60.0657 53.3223C-60.0973 48.9048 -59.596 45.2506 -58.8416 42.283C-58.0918 39.3199 -57.0891 37.0434 -56.0502 35.3134C-54.1893 31.8083 -52.5677 29.3331 -51.5604 27.829C-49.4601 24.6988 -46.6054 21.9299 -43.4617 19.9289C-40.3179 17.928 -36.8941 16.6858 -33.5561 16.2477C-30.2182 15.805 -26.9615 16.1438 -24.03 17.1782C-21.0986 18.2125 -18.4788 19.938 -16.3604 22.4132C-14.2464 24.884 -13.0946 27.4947 -12.6655 30.0874C-12.2364 32.6801 -12.521 35.2502 -13.2437 37.5854C-13.9664 39.9207 -15.1182 42.0075 -16.4462 43.7239C-17.7787 45.4403 -19.2783 46.7863 -20.8682 47.8117C-22.5169 48.8777 -24.956 49.5552 -27.7158 50.6709C-28.6869 51.0367 -29.8207 51.2174 -30.9409 51.389C-32.0656 51.5607 -33.1677 51.7368 -34.0394 52.1388C-35.7017 52.3602 -36.9122 54.2166 -36.9212 56.317C-36.867 57.7804 -36.2888 59.2846 -35.4306 60.6667C-34.5724 62.0444 -33.4432 63.2956 -32.2598 64.3164C-31.781 64.7274 -31.2932 65.1068 -30.7963 65.4546C-27.5216 67.7447 -23.8403 69.4385 -20.3126 70.7168C-15.1543 72.6094 -10.0683 73.7702 -5.46111 74.4929C-0.853886 75.2201 3.27454 75.5182 6.68479 75.6357C10.095 75.7531 12.7871 75.6944 14.6119 75.6402C16.4367 75.586 17.3988 75.5408 17.3492 75.6086V75.6131Z" fill="#8CC63F" fill-opacity="0.08"/>
<path fill-rule="evenodd" clip-rule="evenodd" d="M108.681 213.347C110.384 211.951 111.766 210.293 112.796 208.491C113.83 206.684 114.526 204.728 114.693 202.741C114.86 200.753 114.494 198.721 113.193 196.914C111.892 195.107 109.625 193.517 105.971 192.768C108.757 190.554 111.82 188.707 115.199 187.198C117.873 185.997 120.768 185.048 123.898 184.407C127.024 183.761 130.384 183.427 133.989 183.517C137.855 183.634 141.993 184.226 146.279 185.586C150.232 186.846 154.161 188.915 157.675 191.887C161.185 194.859 164.275 198.73 166.375 203.549C168.136 208.256 168.778 213.256 168.335 218.22C167.893 223.184 166.361 228.108 163.891 232.534C160.069 239.666 154.563 246.139 147.743 251.324C141.342 256.18 134.043 259.961 126.346 262.748C119.151 265.354 111.599 267.269 103.83 268.593C96.065 269.911 88.0792 270.639 80.0482 270.932C69.7632 271.343 59.3473 271.619 48.8862 272.224C36.8397 272.924 24.6576 273.986 12.5524 275.905C0.623276 277.812 -11.1884 280.431 -22.2728 284.673C-32.2596 288.553 -41.6728 293.521 -48.7508 300.509C-56.0501 307.632 -62.5996 315.546 -67.934 324.033C-73.2684 332.515 -77.3878 341.563 -79.8992 350.949C-82.3293 359.77 -83.3366 368.908 -83.1423 377.951C-82.9481 386.998 -81.5479 395.946 -79.1675 404.438C-76.358 414.529 -72.1934 424.032 -67.2339 432.849C-62.2743 441.671 -56.5153 449.805 -50.4401 457.213C-41.9167 467.566 -32.7204 476.482 -23.6008 484.183C-14.4812 491.885 -5.44289 498.371 2.94495 503.891L6.77076 497.373C-13.2481 485.566 -31.6002 471.08 -46.393 453.744C-59.2345 438.64 -69.5646 421.521 -74.7997 403.164C-79.6101 386.443 -80.2606 368.456 -75.7482 352.069C-70.9919 333.947 -59.79 317.325 -45.738 303.635C-39.2653 297.202 -30.3535 292.591 -20.7054 288.842C-10.0908 284.817 1.39567 282.319 13.2525 280.476C24.9783 278.679 36.9752 277.69 49.1391 277.053C59.3021 276.529 69.6684 276.321 80.2198 275.96C95.9566 275.508 112.285 273.349 128.139 267.739C136.021 264.947 143.831 261.027 151.017 255.652C158.181 250.268 164.32 243.33 168.76 235.14C174.194 225.745 175.869 213.572 171.547 201.426C166.768 190.749 158.032 183.386 148.027 180.287C143.37 178.865 138.691 178.137 134.093 178.006C128.998 177.862 124.941 178.39 121.563 179.05C118.18 179.709 115.47 180.531 113.089 181.399C111.151 182.094 109.426 182.803 107.75 183.576C106.074 184.348 104.457 185.184 102.764 186.173C101.07 187.162 99.3036 188.305 97.3795 189.723C95.4553 191.142 93.373 192.835 91.101 194.963C89.0458 196.887 87.501 199.005 86.4757 201.146C85.4549 203.287 84.9445 205.451 84.9083 207.511C84.8361 211.63 86.6473 215.293 89.9401 218.089C91.5843 219.489 93.2375 220.14 94.859 220.293C96.4806 220.447 98.0705 220.095 99.6289 219.44C102.75 218.134 105.772 215.628 108.681 213.347Z" fill="#547726" fill-opacity="0.08"/>
<path fill-rule="evenodd" clip-rule="evenodd" d="M-41.4065 296.182C-41.4065 296.182 -40.6612 295.712 -39.3061 294.899C-37.9465 294.086 -35.9817 292.925 -33.4974 291.583C-31.0176 290.242 -28.0184 288.72 -24.5991 287.22C-21.1799 285.716 -17.3405 284.244 -13.2121 283.001C-9.53082 281.863 -5.20364 281 -0.406708 280.806C3.22486 280.476 7.82757 281.285 12.8232 283.494C17.7873 286.019 21.3511 290.201 23.3928 295.224C24.4542 298.616 24.924 301.543 25.0369 304C25.1543 306.458 24.9149 308.445 24.522 310.017C23.9077 313.147 23.2437 315.433 22.8191 316.824C21.9338 319.724 20.389 322.52 18.4377 324.796C16.4864 327.068 14.1422 328.825 11.676 329.945C9.20974 331.066 6.62608 331.567 4.12373 331.454C1.62589 331.341 -0.795158 330.627 -3.00392 329.223C-5.21267 327.813 -6.70325 326.074 -7.64276 324.182C-8.58227 322.289 -8.96621 320.243 -8.95717 318.278C-8.94362 316.313 -8.54614 314.439 -7.92732 312.804C-7.30399 311.173 -6.46385 309.787 -5.48369 308.626C-4.46288 307.424 -2.74646 306.331 -0.880981 304.827C-0.221516 304.317 0.609589 303.919 1.43166 303.522C2.25373 303.124 3.06226 302.731 3.64042 302.221C4.86901 301.661 5.36587 299.953 4.87805 298.332C4.49863 297.216 3.69914 296.195 2.71446 295.337C1.73429 294.474 0.568939 293.779 -0.582867 293.273C-1.04359 293.065 -1.50883 292.889 -1.97407 292.735C-5.032 291.737 -8.26157 291.299 -11.2743 291.136C-15.6873 290.892 -19.8745 291.186 -23.5919 291.705C-27.3048 292.225 -30.5524 292.961 -33.2038 293.67C-35.8552 294.375 -37.9149 295.048 -39.3061 295.518C-40.7018 295.983 -41.4291 296.245 -41.4065 296.182Z" fill="#547726" fill-opacity="0.08"/>
<path fill-rule="evenodd" clip-rule="evenodd" d="M-92.3704 497.084C-92.2575 495.426 -92.2756 494.067 -92.4427 492.91C-92.6595 491.203 -93.2331 489.983 -94.0417 489.044C-94.8547 488.1 -95.9026 487.44 -97.0364 487.007C-98.1701 486.569 -99.3851 486.361 -100.492 486.338C-101.598 486.316 -102.601 486.483 -103.288 486.731C-103.983 486.984 -104.963 487.522 -105.903 487.91C-106.843 488.294 -107.75 488.525 -108.311 488.05C-109.422 487.106 -109.801 485.119 -109.661 482.784C-109.526 480.444 -108.853 477.792 -108.17 475.484C-108.161 475.448 -108.148 475.412 -108.139 475.376C-107.719 473.962 -107.258 472.819 -106.73 471.749C-106.206 470.683 -105.614 469.689 -104.855 468.61C-104.096 467.53 -103.17 466.356 -101.869 465.001C-100.569 463.65 -98.8928 462.101 -96.4672 460.497C-94.1998 459.106 -91.4219 457.769 -87.971 456.825C-84.5201 455.876 -80.3691 455.334 -75.6941 455.691C-73.0336 455.863 -70.1835 456.283 -67.1843 457.046C-64.1805 457.81 -61.0278 458.921 -57.8072 460.461C-55.1332 461.744 -52.4141 463.275 -49.6633 465.037C-46.908 466.803 -44.1166 468.804 -41.28 470.981C-35.7739 475.191 -29.8342 480.055 -23.2937 485.489C-20.028 488.204 -16.6042 491.059 -12.9862 494.004C-9.36816 496.949 -5.55592 499.988 -1.47717 503.037L2.61061 497.567C-10.4658 487.779 -23.1085 476.297 -37.3141 465.66C-42.5402 461.699 -48.4031 457.792 -55.1648 454.652C-61.3575 451.793 -68.2412 450.005 -75.4863 449.702C-83.2463 449.219 -91.7561 451.107 -99.4981 456.22C-103.188 458.952 -106.201 462.205 -108.518 465.755C-110.442 468.709 -111.639 471.406 -112.48 473.84C-113.198 475.877 -113.708 477.698 -114.101 479.396C-114.499 481.099 -114.774 482.675 -114.973 484.229C-115.37 487.337 -115.483 490.367 -115.149 493.999C-115.117 494.383 -115.081 494.776 -115.041 495.178C-114.855 496.953 -114.304 498.678 -113.496 500.241C-112.687 501.8 -111.626 503.2 -110.442 504.361C-108.076 506.687 -105.248 508.042 -102.967 508.43C-101.074 508.751 -99.4845 508.498 -98.1746 507.92C-96.8647 507.342 -95.8304 506.434 -95.0128 505.341C-94.1998 504.252 -93.599 502.979 -93.1699 501.587C-92.7408 500.196 -92.4788 498.688 -92.3704 497.084Z" fill="#547726" fill-opacity="0.08"/>
</svg>
