<svg width="48" height="49" viewBox="0 0 48 49" fill="none" xmlns="http://www.w3.org/2000/svg">
<path d="M40 6.5H8C7.46957 6.5 6.96086 6.71071 6.58579 7.08579C6.21071 7.46086 6 7.96957 6 8.5V40.5C6 41.0304 6.21071 41.5391 6.58579 41.9142C6.96086 42.2893 7.46957 42.5 8 42.5H25.23V28.58H20.554V23.13H25.23V19.13C25.23 14.48 28.07 11.946 32.23 11.946C33.628 11.942 35.028 12.014 36.42 12.16V17H33.55C31.294 17 30.854 18.076 30.854 19.65V23.12H36.248L35.548 28.57H30.852V42.5H40C40.5304 42.5 41.0391 42.2893 41.4142 41.9142C41.7893 41.5391 42 41.0304 42 40.5V8.5C42 7.96957 41.7893 7.46086 41.4142 7.08579C41.0391 6.71071 40.5304 6.5 40 6.5V6.5Z" fill="#707070"/>
</svg>
