<svg width="757" height="972" viewBox="0 0 757 972" fill="none" xmlns="http://www.w3.org/2000/svg">
<path fill-rule="evenodd" clip-rule="evenodd" d="M245.705 553.289C241.979 554.132 238.241 554.257 234.665 553.746C231.099 553.237 227.678 552.103 224.784 550.213C221.887 548.317 219.491 545.651 218.412 541.941C217.323 538.229 217.559 533.43 220.436 527.621C214.433 529.083 208.647 531.305 202.979 534.319C198.48 536.705 194.095 539.654 189.882 543.256C185.668 546.859 181.625 551.102 177.909 556.137C173.954 561.558 170.348 567.864 167.641 575.188C165.154 581.944 163.793 589.537 164.119 597.517C164.444 605.498 166.451 613.861 170.807 621.882C175.369 629.313 181.526 635.53 188.794 640.219C196.059 644.903 204.424 648.066 213.119 649.395C226.946 651.772 241.677 651.13 256.036 647.321C269.502 643.732 282.455 637.761 294.472 630.189C305.714 623.113 316.38 614.811 326.466 605.578C336.552 596.345 346.057 586.182 355.016 575.492C366.541 561.842 378.017 547.858 389.992 534.174C403.791 518.418 418.227 502.86 433.758 488.323C449.08 474.01 465.257 460.623 482.875 449.967C498.825 440.424 515.659 432.823 532.764 430.579C550.291 428.178 568.097 427.649 585.395 429.391C602.689 431.128 619.466 435.143 634.978 441.719C649.637 447.793 663.221 456.163 675.39 466.077C687.553 475.993 698.304 487.458 707.394 499.776C718.202 514.392 726.77 530.233 733.556 546.436C740.337 562.643 745.336 579.211 748.986 595.438C754.076 618.16 756.477 640.27 757.294 660.982C758.113 681.685 757.353 700.997 755.962 718.377L742.966 716.666C748.153 676.638 747.888 636.044 739.933 597.281C732.953 563.574 720.532 531.165 700.997 504.41C683.243 479.972 659.316 459.898 632.085 448.601C602.22 435.785 567.538 433.396 533.828 438.042C518.13 440.051 502.323 447.339 486.909 456.562C470.087 466.813 454.432 479.88 439.268 494.16C424.311 508.307 410.169 523.692 396.342 539.675C384.784 553.039 373.452 567.015 361.714 581.092C344.323 602.172 323.964 622.239 299.389 637.977C287.172 645.797 273.483 652.314 258.465 656.425C243.468 660.5 227.434 661.504 211.491 658.85C192.846 656.278 174.4 645.585 162.391 626.707C152.869 608.767 152.107 588.948 158.534 571.93C161.549 564.034 165.538 556.841 170.258 550.405C175.489 543.27 180.533 538.275 185.041 534.349C189.549 530.423 193.563 527.584 197.288 525.253C200.305 523.336 203.114 521.725 205.955 520.259C208.793 518.786 211.663 517.458 214.82 516.193C217.978 514.928 221.426 513.732 225.415 512.608C229.412 511.486 233.951 510.438 239.285 509.591C244.103 508.827 248.649 508.971 252.672 509.854C256.692 510.732 260.194 512.345 263.05 514.491C268.766 518.79 271.85 525.176 272.167 532.675C272.326 536.421 271.458 539.379 269.939 541.766C268.417 544.148 266.242 545.952 263.689 547.391C258.571 550.27 251.914 551.739 245.7 553.292L245.705 553.289Z" fill="#8CC63F"/>
<path fill-rule="evenodd" clip-rule="evenodd" d="M477.349 329.131C475.532 328.491 473.832 327.835 472.172 327.333C470.513 326.823 468.897 326.451 467.272 326.203C464.491 325.753 461.617 325.369 458.71 325.329C455.802 325.288 452.882 325.579 450.137 326.272C447.393 326.966 444.828 328.069 442.667 329.535C440.506 331 438.755 332.825 437.606 334.795C436.954 335.916 436.282 337.439 435.617 339.114C434.95 340.784 434.291 342.62 433.586 344.314C432.186 347.703 430.578 350.618 427.746 350.134C426.628 349.943 424.676 348.483 422.387 345.996C420.099 343.509 417.503 339.968 415.149 335.764C412.713 331.455 410.505 326.438 408.833 321.288C407.161 316.139 406.017 310.867 405.332 306.149C405.152 304.909 404.959 303.484 404.775 301.864C404.316 297.966 403.917 292.945 404.229 286.78C404.536 280.617 405.547 273.309 408.252 265.08C410.098 259.58 412.737 253.833 416.421 248.129C420.097 242.423 424.821 236.765 430.819 231.6C436.514 226.862 442.963 222.682 450.047 219.308C457.126 215.937 464.835 213.375 472.894 211.862C481.962 210.114 491.446 209.261 501.105 209.336C510.773 209.413 520.624 210.42 530.366 212.261C541.113 214.259 551.969 217.385 562.706 221.718C573.444 226.05 584.062 231.589 594.271 238.311C602.199 243.528 609.196 248.975 615.43 254.446C624.16 262.098 631.506 269.657 637.919 276.997C644.328 284.332 649.805 291.463 654.67 298.408C664.402 312.292 671.76 325.412 678.341 338.827C684.448 351.28 690.005 364.018 695.569 378.406C701.138 392.791 706.721 408.821 712.332 428.029C717.939 447.232 723.574 469.636 728.579 496.785C731.08 510.363 733.413 525.128 735.44 541.241C737.468 557.353 739.19 574.814 740.451 593.716L760.558 592.327C754.973 503.768 735.365 412.829 689.544 332.345C672.028 301.565 649.456 272.277 620.65 248.125C595.849 227.27 565.584 211.515 531.815 204.702C513.408 200.9 492.941 199.517 471.384 202.814C455.434 205.178 439.014 211.602 423.989 222.836C411.474 232.658 401.862 245.45 395.924 260.111C394.463 263.816 393.236 267.558 392.243 271.316C390.676 277.229 389.762 282.806 389.283 288.045C388.804 293.284 388.778 298.189 389.042 302.788C389.478 311.094 390.772 318.448 392.547 325.126C394.325 331.81 396.588 337.824 399.272 343.456C402.181 349.686 405.687 355.466 409.994 361.025C414.304 366.59 419.415 371.956 425.849 377.096C429.967 380.336 434.58 383.357 439.821 386.013C444.036 388.143 448.715 389.781 453.585 390.795C458.451 391.813 463.51 392.197 468.471 391.949C475.372 391.423 481.673 389.748 486.952 387.342C492.236 384.933 496.509 381.809 499.672 378.482C502.831 375.15 504.89 371.631 505.919 368.315C506.942 365.003 506.951 361.906 506.059 359.191C505.046 356.112 503.523 352.82 501.557 349.655C499.582 346.488 497.169 343.444 494.499 340.745C491.828 338.045 488.907 335.693 486.05 333.825C484.621 332.89 483.207 332.074 481.86 331.349C480.504 330.623 479.217 330.002 478.016 329.378C477.798 329.294 477.574 329.213 477.349 329.131Z" fill="#8CC63F"/>
<path fill-rule="evenodd" clip-rule="evenodd" d="M650.448 291.298C609.573 239.204 569.407 184.779 545.619 122.743C541.053 110.861 537.097 98.565 535.531 85.8396C535.183 82.9931 534.956 80.0998 535.038 77.1879C535.054 76.4887 535.096 75.7812 535.175 75.0639C535.193 74.8806 535.216 74.6939 535.249 74.5004C535.501 74.4964 535.753 74.4923 536.008 74.4936C536.09 74.4934 536.181 74.4951 536.269 74.4915C536.591 74.5622 536.915 74.6242 537.237 74.6949C538.162 74.8887 539.087 75.0826 540.021 75.2784C540.011 75.3446 540 75.4336 539.995 75.5419C539.936 76.0812 539.915 76.6562 539.898 77.2732C539.852 79.8326 540.093 82.4777 540.45 85.1758C542.047 97.2599 546.036 109.093 550.633 120.754C574.694 181.626 615.118 234.944 656.417 286.497L650.45 291.289L650.448 291.298Z" fill="#8CC63F"/>
<path fill-rule="evenodd" clip-rule="evenodd" d="M585.764 4.13463C585.764 4.13463 584.715 4.29697 582.843 4.71678C580.969 5.1453 578.273 5.84532 575.04 7.0617C571.801 8.28148 568.033 10.0195 564.099 12.5152C560.167 15.0022 556.072 18.2521 552.245 22.3412C548.197 26.8704 544.662 32.0823 541.934 37.6084C539.207 43.1345 537.281 48.9553 536.162 54.597C534.485 62.654 534.205 70.3329 534.576 76.548C534.955 82.765 535.933 87.5207 536.498 90.0408C536.535 90.2041 536.576 90.3727 536.618 90.5327C537.492 94.2249 539.344 97.9948 541.935 101.224C544.521 104.457 547.839 107.138 551.38 108.824C554.93 110.511 558.684 111.207 562.176 110.791C565.664 110.37 568.876 108.852 571.679 106.437C574.519 103.998 576.368 101.332 577.676 98.8488C578.985 96.3566 579.752 94.0241 580.149 91.8839C580.935 87.6158 580.224 84.0735 577.904 80.9402C577.483 80.364 576.92 79.7886 576.239 79.1691C573.941 77.0173 570.287 74.4082 566.66 70.8466C564.842 69.0691 563.036 67.0664 561.42 64.8818C559.8 62.7006 558.373 60.3429 557.274 57.9248C556.066 55.2546 555.266 52.4959 555.013 49.9484C554.639 46.1606 554.798 42.3162 555.466 38.588C556.13 34.8544 557.306 31.2424 558.892 27.8845C561.182 23.2072 564.2 19.2324 567.319 16.0605C570.433 12.892 573.648 10.5124 576.454 8.76863C579.264 7.03021 581.666 5.91901 583.314 5.20823C584.958 4.50085 585.85 4.17647 585.764 4.13463Z" fill="#8CC63F"/>
<path fill-rule="evenodd" clip-rule="evenodd" d="M777.944 306.479C777.944 306.479 776.643 306.272 774.229 306.043C771.806 305.812 768.259 305.568 763.751 305.729C759.245 305.881 753.771 306.451 747.643 307.963C741.519 309.48 734.739 311.963 727.791 315.924C721.149 320.258 715.25 325.8 710.57 332.112C705.881 338.422 702.423 345.485 700.311 352.639C697.385 362.58 696.344 371.982 696.218 379.817C696.091 387.653 696.839 393.933 697.481 398.103C697.674 399.469 697.853 400.627 698.004 401.541C698.755 406.128 700.504 410.884 703.033 415.163C705.563 419.442 708.858 423.246 712.555 426.097C716.242 428.947 720.318 430.859 724.388 431.569C728.458 432.28 732.511 431.805 736.314 430.052C740.115 428.307 742.805 425.821 744.681 423.034C746.56 420.252 747.627 417.159 748.109 414.006C748.589 410.862 748.486 407.649 747.937 404.535C747.389 401.42 746.399 398.401 745.017 395.588C744.157 393.833 742.836 391.969 741.248 389.932C738.264 385.996 734.1 381.513 730.386 376.225C728.529 373.582 726.793 370.741 725.367 367.753C723.947 364.763 722.837 361.626 722.177 358.478C721.573 355.616 721.382 352.722 721.636 350.044C722.084 345.341 723.336 340.655 725.346 336.299C727.356 331.944 730.126 327.91 733.481 324.393C738.648 319.297 744.48 315.661 749.95 313.11C755.424 310.565 760.546 309.083 764.779 308.177C769.007 307.275 772.362 306.939 774.614 306.762C776.867 306.585 778.032 306.558 777.947 306.485L777.944 306.479Z" fill="#8CC63F"/>
<path fill-rule="evenodd" clip-rule="evenodd" d="M597.927 367.23C597.927 367.23 599.273 366.772 601.727 366.01C604.172 365.246 607.719 364.18 612.151 363.035C621.016 360.759 633.473 358.235 647.444 357.586C654.471 357.234 661.916 357.521 669.314 358.602C676.712 359.682 684.048 361.566 690.851 364.09C699.191 367.308 706.23 371.5 711.612 375.428C716.993 379.356 720.745 382.995 722.849 385.137C723.741 386.04 724.605 387.014 725.423 388.047C728.478 391.99 730.875 396.646 732.306 401.396C733.737 406.147 734.208 410.987 733.733 415.378C733.252 419.773 731.839 423.716 729.658 426.857C727.476 429.997 724.53 432.34 720.952 433.732C717.138 435.222 713.557 435.404 710.319 434.849C707.079 434.288 704.174 432.989 701.641 431.324C699.108 429.659 696.946 427.638 695.145 425.467C693.339 423.3 691.892 420.993 690.762 418.572C690.561 418.154 690.381 417.708 690.209 417.242C689.212 414.257 688.492 410.01 687.002 405.11C685.513 400.21 683.202 394.683 679.789 389.712C676.067 384.272 671.076 379.585 666.048 376.793C660.047 373.464 653.605 371.06 647.373 369.45C640.433 367.635 633.717 366.686 627.673 366.236C621.624 365.789 616.238 365.831 611.793 366.042C607.352 366.249 603.853 366.618 601.48 366.887C599.107 367.155 597.861 367.325 597.927 367.23Z" fill="#8CC63F"/>
<path fill-rule="evenodd" clip-rule="evenodd" d="M519.01 436.022C519.01 436.022 517.571 436.546 515.017 437.538C512.454 438.527 508.774 439.992 504.29 441.956C499.809 443.926 494.527 446.409 488.83 449.494C483.133 452.58 477.025 456.264 470.924 460.589C465.442 464.42 459.651 469.429 454.274 475.798C449.95 480.421 446.151 487.583 443.851 496.795C442.015 506.287 443.945 515.628 448.635 523.786C452.145 528.86 455.655 532.624 458.892 535.402C462.133 538.185 465.104 539.973 467.675 541.113C472.612 543.611 476.449 545.137 478.802 546.042C483.714 547.927 489.192 548.792 494.386 548.544C499.57 548.294 504.474 546.952 508.637 544.766C512.794 542.584 516.238 539.579 518.748 536.041C521.261 532.494 522.864 528.414 523.291 523.89C523.718 519.365 522.932 515.459 521.339 512.152C519.75 508.85 517.359 506.144 514.657 504.064C511.958 501.974 508.968 500.519 506.078 499.63C503.183 498.743 500.389 498.413 497.755 498.52C495.02 498.632 491.696 499.823 487.646 500.769C486.25 501.139 484.817 501.846 483.398 502.553C481.975 503.254 480.577 503.946 479.265 504.188C477.191 505.275 474.317 504.129 472.62 501.735C471.503 500.024 470.959 497.842 470.826 495.577C470.702 493.313 470.984 490.97 471.516 488.855C471.726 488.002 471.981 487.173 472.269 486.382C474.158 481.124 477.003 476.226 479.995 471.931C484.36 465.619 489.229 460.197 493.893 455.662C498.563 451.123 503.04 447.464 506.831 444.581C510.62 441.707 513.742 439.604 515.863 438.193C517.988 436.789 519.122 436.07 519.004 436.026L519.01 436.022Z" fill="#8CC63F"/>
<path fill-rule="evenodd" clip-rule="evenodd" d="M848.233 580.52C845.848 578.91 844.007 577.438 842.604 575.971C840.5 573.853 839.442 571.767 839.016 569.652C838.591 567.537 838.814 565.395 839.416 563.378C840.028 561.363 841.035 559.475 842.19 557.935C843.342 556.39 844.63 555.198 845.704 554.526C846.794 553.843 848.575 553.07 850.104 552.196C851.638 551.319 852.919 550.327 852.862 549.045C852.764 546.518 850.44 543.882 847.099 541.574C843.75 539.264 839.403 537.361 835.517 535.828C835.458 535.806 835.396 535.779 835.337 535.757C832.958 534.824 830.895 534.244 828.874 533.823C826.854 533.402 824.865 533.148 822.579 533.039C820.291 532.925 817.699 532.945 814.457 533.283C811.219 533.627 807.323 534.264 802.536 535.884C798.22 537.502 793.426 539.882 788.456 543.601C783.487 547.321 778.318 552.426 773.822 559.211C771.223 563.045 768.759 567.392 766.605 572.319C764.452 577.245 762.609 582.751 761.284 588.808C760.194 593.84 759.384 599.194 758.864 604.849C758.344 610.503 758.109 616.462 758.071 622.67C757.956 634.712 758.285 648.042 758.75 662.789C758.983 670.17 759.245 677.899 759.413 685.996C759.589 694.094 759.685 702.558 759.509 711.406L747.667 711.171C748.213 682.812 745.977 653.241 746.559 622.426C746.707 611.044 747.609 598.842 750.518 586.231C753.209 574.696 758.098 563.355 765.405 553.102C773.012 541.96 784.667 532.314 799.913 527.166C807.59 525.022 815.251 524.362 822.583 524.976C828.671 525.495 833.639 526.731 837.864 528.174C841.418 529.365 844.453 530.61 847.199 531.884C849.942 533.152 852.4 534.454 854.738 535.839C859.415 538.608 863.681 541.694 868.294 546.024C868.787 546.479 869.282 546.948 869.787 547.434C872.019 549.575 873.795 552.174 875.07 554.95C876.343 557.721 877.125 560.663 877.455 563.529C878.122 569.248 876.959 574.565 875.053 578.113C873.479 581.044 871.439 582.956 869.251 584.132C867.062 585.309 864.719 585.753 862.356 585.709C859.992 585.665 857.61 585.124 855.25 584.232C852.89 583.34 850.551 582.082 848.236 580.525L848.233 580.52Z" fill="#8CC63F"/>
<path fill-rule="evenodd" clip-rule="evenodd" d="M749.034 683.17C741.395 668.254 725.465 660.861 711.723 652.501C684.339 635.844 663.657 608.514 653.027 578.109C651.67 571.089 649.487 563.796 651.363 556.659C677.924 583.76 717.816 587.986 742.57 615.316C755.737 629.852 757.852 651.785 755.409 671.088C755.064 673.787 756.187 676.676 758.131 678.672" fill="#8CC63F"/>
<path fill-rule="evenodd" clip-rule="evenodd" d="M456.069 206.965C456.069 206.965 455.04 208.095 453.16 210.092C451.274 212.093 448.53 214.95 445.016 218.359C441.502 221.768 437.207 225.723 432.206 229.837C427.199 233.955 421.48 238.222 415.176 242.242C409.564 245.872 402.732 249.347 394.814 251.922C388.901 254.18 380.84 254.999 371.457 253.647C361.977 251.758 354.07 246.445 348.294 239.012C344.933 233.843 342.773 229.17 341.426 225.114C340.078 221.066 339.544 217.636 339.464 214.821C339.014 209.3 339.058 205.17 339.11 202.644C339.224 197.384 340.496 191.981 342.686 187.264C344.876 182.546 347.966 178.51 351.56 175.483C355.151 172.451 359.234 170.399 363.458 169.409C367.683 168.419 372.061 168.476 376.413 169.792C380.757 171.106 384.076 173.308 386.531 176.033C388.986 178.758 390.585 181.993 391.493 185.282C392.401 188.571 392.617 191.891 392.347 194.908C392.072 197.928 391.322 200.639 390.225 203.04C389.089 205.534 386.731 208.166 384.327 211.554C383.46 212.714 382.264 213.78 381.076 214.825C379.883 215.873 378.72 216.909 377.998 218.037C376.21 219.548 376.184 222.641 377.754 225.117C378.919 226.797 380.73 228.13 382.779 229.109C384.825 230.083 387.093 230.704 389.253 231.013C390.125 231.136 390.984 231.215 391.829 231.25C397.402 231.478 403.004 230.699 408.113 229.548C415.6 227.891 422.452 225.429 428.412 222.812C434.375 220.2 439.453 217.444 443.55 215.016C447.647 212.588 450.767 210.493 452.872 209.057C454.976 207.62 456.073 206.843 456.065 206.96L456.069 206.965Z" fill="#8CC63F"/>
<path fill-rule="evenodd" clip-rule="evenodd" d="M667.066 300.152C668.018 297.23 668.395 294.241 668.25 291.348C668.106 288.446 667.452 285.623 666.153 283.161C664.854 280.699 662.895 278.585 660.006 277.44C657.118 276.295 653.256 276.132 648.396 278C650.007 273.302 652.217 268.826 655.053 264.51C657.293 261.086 659.982 257.792 663.179 254.683C666.368 251.572 670.067 248.65 674.372 246.044C679.005 243.273 684.314 240.855 690.376 239.228C695.97 237.736 702.146 237.211 708.513 238.06C714.875 238.914 721.42 241.139 727.515 245.224C733.127 249.431 737.644 254.827 740.858 260.995C744.073 267.163 745.978 274.103 746.404 281.166C747.279 292.425 745.676 304.177 741.56 315.404C737.69 325.928 731.954 335.864 725.004 344.932C718.506 353.41 711.07 361.344 702.933 368.745C694.798 376.138 685.958 383.001 676.738 389.389C664.957 397.611 652.92 405.773 641.078 414.355C627.444 424.243 613.923 434.657 601.137 446.022C588.549 457.238 576.635 469.205 566.796 482.531C557.976 494.607 550.649 507.53 547.587 521.07C544.366 534.936 542.622 549.166 542.737 563.157C542.849 577.142 544.814 590.877 548.924 603.8C552.705 615.999 558.397 627.498 565.429 637.982C572.465 648.471 580.844 657.936 590.031 666.127C600.927 675.875 612.973 683.913 625.437 690.546C637.905 697.184 650.796 702.413 663.511 706.55C681.32 712.306 698.84 715.868 715.354 718.059C731.869 720.25 747.375 721.074 761.388 721.251L760.981 710.711C728.564 711.894 696.092 708.675 665.658 699.427C639.198 691.334 614.174 678.983 594.207 661.343C575.971 645.306 561.673 624.653 554.647 601.994C546.602 577.113 547.263 549.144 553.48 522.477C556.249 510.046 563.255 497.919 571.776 486.253C581.225 473.535 592.848 461.956 605.4 450.868C617.831 439.932 631.189 429.742 645.009 419.841C656.561 411.578 668.591 403.534 680.722 395.17C698.881 382.798 716.451 367.974 730.867 349.45C738.032 340.238 744.263 329.753 748.666 318.027C753.036 306.307 755.031 293.533 754.089 280.566C753.407 265.433 746.218 249.862 731.997 238.837C718.345 229.881 702.536 227.799 688.444 231.685C681.899 233.516 675.851 236.182 670.347 239.488C664.249 243.152 659.879 246.825 656.403 250.143C652.923 253.464 650.355 256.469 648.21 259.28C646.455 261.555 644.961 263.687 643.572 265.856C642.183 268.025 640.911 270.224 639.664 272.661C638.417 275.099 637.201 277.771 636.006 280.886C634.812 284.001 633.638 287.559 632.568 291.769C631.6 295.578 631.378 299.23 631.784 302.519C632.195 305.803 633.223 308.731 634.73 311.179C637.745 316.076 642.631 319.019 648.605 319.828C651.591 320.237 654.024 319.758 656.046 318.718C658.068 317.679 659.671 316.068 661.01 314.126C663.697 310.243 665.363 305.022 667.066 300.152Z" fill="#547726"/>
<path fill-rule="evenodd" clip-rule="evenodd" d="M470.491 469.152C470.119 467.646 469.72 466.24 469.436 464.872C469.157 463.501 468.977 462.179 468.902 460.857C468.742 458.595 468.65 456.266 468.834 453.933C469.015 451.608 469.466 449.284 470.225 447.137C470.984 444.989 472.056 443.015 473.389 441.391C474.722 439.767 476.314 438.501 477.976 437.729C478.921 437.288 480.188 436.859 481.574 436.451C482.968 436.045 484.483 435.652 485.894 435.213C488.71 434.339 491.154 433.269 490.98 430.962C490.909 430.057 489.89 428.382 488.065 426.361C486.243 424.346 483.604 422 480.408 419.802C477.145 417.534 473.289 415.392 469.295 413.667C465.296 411.945 461.164 410.645 457.436 409.745C456.456 409.512 455.328 409.246 454.049 408.979C450.963 408.32 446.974 407.632 442.019 407.421C437.066 407.215 431.138 407.484 424.354 409.035C419.813 410.115 415.016 411.8 410.181 414.326C405.342 416.847 400.463 420.217 395.883 424.639C391.672 428.853 387.845 433.714 384.624 439.136C381.398 444.562 378.775 450.545 376.967 456.889C374.898 464.029 373.515 471.562 372.854 479.312C372.199 487.059 372.28 495.032 373.029 502.973C373.828 511.728 375.533 520.66 378.201 529.588C380.875 538.513 384.518 547.431 389.144 556.109C392.731 562.848 396.575 568.853 400.492 574.258C405.97 581.822 411.47 588.264 416.873 593.945C422.271 599.629 427.572 604.544 432.77 608.957C443.159 617.786 453.116 624.654 463.365 630.924C472.882 636.741 482.665 642.133 493.762 647.657C504.867 653.184 517.283 658.852 532.242 664.764C547.199 670.684 564.707 676.858 586.068 682.878C596.747 685.893 608.392 688.859 621.14 691.679C633.885 694.495 647.73 697.168 662.768 699.578L660.167 715.592C589.697 704.545 518.366 682.096 457.343 639.419C434.007 623.098 412.237 602.84 395.043 577.978C380.193 556.555 369.82 531.135 366.869 503.57C365.192 488.543 365.601 472.038 369.836 455.009C372.907 442.407 379.269 429.719 389.376 418.519C398.162 409.22 409.115 402.464 421.285 398.791C424.36 397.9 427.446 397.19 430.527 396.67C435.374 395.858 439.907 395.539 444.137 395.54C448.366 395.551 452.294 395.888 455.951 396.444C462.572 397.409 468.359 398.989 473.575 400.905C478.79 402.821 483.437 405.086 487.749 407.648C492.516 410.442 496.88 413.682 501.016 417.547C505.152 421.412 509.062 425.907 512.7 431.438C514.989 434.98 517.067 438.905 518.801 443.297C520.197 446.835 521.16 450.702 521.611 454.68C522.061 458.658 521.996 462.742 521.434 466.694C520.497 472.189 518.692 477.109 516.375 481.16C514.055 485.22 511.238 488.408 508.34 490.697C505.438 492.981 502.472 494.37 499.744 494.949C497.015 495.528 494.533 495.298 492.429 494.384C490.042 493.345 487.519 491.883 485.129 490.067C482.743 488.256 480.483 486.095 478.519 483.752C476.559 481.414 474.897 478.899 473.61 476.467C472.962 475.257 472.416 474.065 471.936 472.928C471.455 471.791 471.054 470.708 470.644 469.705C470.593 469.521 470.546 469.342 470.497 469.148L470.491 469.152Z" fill="#547726"/>
<path fill-rule="evenodd" clip-rule="evenodd" d="M427.385 605.046C388.726 568.436 348.138 532.214 300.256 508.558C291.079 504.021 281.533 499.936 271.459 497.739C269.207 497.249 266.911 496.855 264.576 496.703C264.014 496.666 263.444 496.642 262.867 496.652C262.72 496.656 262.564 496.659 262.406 496.67C262.385 496.87 262.367 497.076 262.346 497.277C262.34 497.349 262.333 497.42 262.326 497.492C262.357 497.749 262.385 498.016 262.418 498.279C262.504 499.032 262.593 499.791 262.677 500.554C262.733 500.548 262.806 500.545 262.892 500.551C263.322 500.545 263.787 500.569 264.281 500.604C266.339 500.755 268.435 501.142 270.568 501.633C280.123 503.802 289.297 507.878 298.294 512.427C345.223 536.221 384.905 572.558 423.108 609.475L427.385 605.046Z" fill="#547726"/>
<path fill-rule="evenodd" clip-rule="evenodd" d="M202.348 531.931C202.348 531.931 202.553 531.104 203.035 529.635C203.508 528.165 204.268 526.054 205.483 523.555C206.697 521.056 208.369 518.159 210.657 515.198C212.948 512.227 215.846 509.189 219.406 506.424C223.33 503.516 227.76 501.07 232.385 499.291C237.01 497.513 241.812 496.408 246.408 495.929C252.98 495.181 259.152 495.527 264.098 496.283C269.041 497.049 272.776 498.183 274.753 498.827C274.885 498.869 275.008 498.91 275.14 498.953C278.029 499.934 280.909 501.698 283.304 504.012C285.699 506.327 287.597 509.176 288.684 512.148C289.772 515.112 290.046 518.17 289.458 520.934C288.864 523.702 287.412 526.158 285.273 528.231C283.106 530.329 280.84 531.608 278.752 532.473C276.663 533.338 274.737 533.778 272.995 533.934C269.516 534.252 266.737 533.419 264.398 531.331C263.975 530.951 263.55 530.451 263.108 529.866C261.558 527.864 259.738 524.74 257.161 521.569C255.867 519.98 254.396 518.384 252.771 516.932C251.147 515.471 249.36 514.152 247.507 513.093C245.463 511.924 243.316 511.083 241.289 510.688C238.29 510.108 235.198 509.954 232.166 510.21C229.129 510.47 226.152 511.141 223.345 512.159C219.435 513.651 216.035 515.775 213.261 518.037C210.492 520.296 208.349 522.701 206.748 524.818C205.147 526.936 204.081 528.779 203.387 530.046C202.703 531.315 202.379 532.001 202.348 531.931Z" fill="#547726"/>
<path fill-rule="evenodd" clip-rule="evenodd" d="M430.093 708.336C430.093 708.336 430.025 707.272 430.02 705.322C430.016 703.363 430.087 700.504 430.544 696.903C431.004 693.307 431.862 688.963 433.527 684.162C435.195 679.367 437.684 674.121 441.37 668.842C445.328 663.846 450.2 659.53 455.604 656.243C461.003 652.96 466.908 650.714 472.795 649.551C480.962 647.938 488.569 647.8 494.848 648.279C501.128 648.758 506.101 649.827 509.389 650.649C510.469 650.908 511.377 651.135 512.103 651.322C515.716 652.265 519.392 654.021 522.635 656.362C525.872 658.706 528.666 661.633 530.678 664.799C532.684 667.969 533.913 671.374 534.18 674.691C534.449 678 533.766 681.213 532.086 684.131C530.405 687.048 528.219 689.023 525.844 690.319C523.479 691.616 520.922 692.242 518.37 692.393C515.812 692.549 513.249 692.228 510.799 691.558C508.349 690.888 506.004 689.867 503.851 688.55C502.511 687.731 501.12 686.541 499.608 685.113C496.678 682.43 493.394 678.761 489.442 675.393C487.46 673.712 485.32 672.111 483.031 670.746C480.747 669.387 478.314 668.264 475.843 667.503C473.6 666.805 471.299 666.437 469.133 666.446C465.335 666.452 461.495 667.106 457.861 668.399C454.224 669.687 450.787 671.602 447.73 674.03C443.267 677.793 439.924 682.193 437.478 686.394C435.028 690.589 433.467 694.582 432.431 697.91C431.392 701.233 430.881 703.895 430.566 705.684C430.259 707.474 430.151 708.404 430.098 708.333L430.093 708.336Z" fill="#547726"/>
<path fill-rule="evenodd" clip-rule="evenodd" d="M492.059 568.589C492.059 568.589 491.592 569.637 490.799 571.544C490.003 573.446 488.884 576.212 487.645 579.678C485.165 586.61 482.221 596.406 480.665 607.551C479.865 613.154 479.54 619.148 479.86 625.155C480.177 631.158 481.142 637.18 482.656 642.82C484.615 649.739 487.444 655.691 490.195 660.292C492.94 664.897 495.576 668.173 497.13 670.015C497.788 670.799 498.507 671.559 499.268 672.292C502.199 675.034 505.745 677.3 509.442 678.796C513.142 680.297 516.98 681.03 520.529 680.974C524.082 680.923 527.343 680.078 530.017 678.56C532.695 677.049 534.785 674.865 536.167 672.101C537.641 669.152 538.052 666.299 537.846 663.661C537.64 661.024 536.816 658.602 535.669 656.447C534.53 654.294 533.063 652.412 531.466 650.806C529.861 649.199 528.118 647.867 526.271 646.782C525.947 646.592 525.608 646.413 525.244 646.241C522.93 645.222 519.583 644.333 515.772 642.775C511.961 641.218 507.711 638.953 503.983 635.853C499.907 632.466 496.525 628.119 494.661 623.885C492.435 618.828 490.995 613.492 490.169 608.377C489.233 602.681 488.969 597.229 489.058 592.352C489.147 587.474 489.582 583.161 490.077 579.618C490.571 576.076 491.126 573.295 491.517 571.414C491.907 569.532 492.137 568.547 492.054 568.592L492.059 568.589Z" fill="#547726"/>
<path fill-rule="evenodd" clip-rule="evenodd" d="M552.964 510.457C552.964 510.457 553.487 509.344 554.468 507.369C555.455 505.39 556.891 502.547 558.802 499.101C560.707 495.658 563.088 491.612 565.979 487.276C568.866 482.936 572.272 478.316 576.19 473.749C579.661 469.641 584.099 465.371 589.591 461.533C593.612 458.413 599.631 455.901 607.165 454.738C614.901 453.971 622.237 456.206 628.416 460.574C632.217 463.763 634.971 466.85 636.953 469.654C638.94 472.454 640.154 474.97 640.875 477.114C642.508 481.256 643.447 484.442 643.995 486.397C645.136 490.472 645.424 494.921 644.843 499.065C644.259 503.204 642.825 507.034 640.769 510.206C638.713 513.378 636.053 515.912 633.026 517.662C630.005 519.409 626.622 520.391 622.968 520.402C619.312 520.407 616.251 519.485 613.723 517.967C611.194 516.449 609.203 514.333 607.735 512.016C606.273 509.696 605.33 507.194 604.827 504.806C604.333 502.42 604.277 500.158 604.556 498.056C604.851 495.875 606.047 493.299 607.108 490.127C607.499 489.031 608.177 487.938 608.844 486.853C609.511 485.767 610.166 484.696 610.462 483.661C611.485 482.079 610.784 479.698 608.99 478.159C607.705 477.133 605.997 476.534 604.194 476.266C602.392 475.99 600.499 476.049 598.764 476.321C598.067 476.423 597.387 476.566 596.725 476.736C592.379 477.863 588.253 479.778 584.589 481.854C579.218 484.888 574.517 488.383 570.538 491.791C566.564 495.195 563.3 498.504 560.717 501.333C558.13 504.156 556.216 506.497 554.934 508.096C553.643 509.693 552.985 510.549 552.964 510.457Z" fill="#547726"/>
<path fill-rule="evenodd" clip-rule="evenodd" d="M644.221 784.968C643.107 782.935 642.062 781.35 640.996 780.117C639.456 778.273 637.864 777.271 636.207 776.775C634.541 776.277 632.813 776.29 631.154 776.633C629.491 776.971 627.907 777.641 626.589 778.447C625.271 779.253 624.218 780.204 623.598 781.013C622.971 781.834 622.223 783.203 621.411 784.367C620.595 785.525 619.701 786.479 618.686 786.343C616.669 786.069 614.728 784.018 613.135 781.168C611.534 778.316 610.33 774.692 609.395 771.466C609.379 771.417 609.368 771.364 609.351 771.315C608.781 769.337 608.463 767.647 608.279 765.991C608.092 764.343 608.04 762.73 608.12 760.89C608.2 759.05 608.405 756.973 608.914 754.401C609.427 751.835 610.231 748.752 611.876 745.042C613.495 741.701 615.754 738.039 619.1 734.333C622.443 730.621 626.915 726.861 632.679 723.763C635.936 721.962 639.602 720.312 643.702 718.952C647.807 717.59 652.35 716.523 657.294 715.911C661.403 715.407 665.752 715.161 670.311 715.162C674.878 715.165 679.665 715.416 684.638 715.841C694.278 716.647 704.921 717.896 716.698 719.363C722.579 720.096 728.752 720.876 735.221 721.616C741.69 722.355 748.458 723.06 755.547 723.575L756.237 714.069C733.5 712.402 709.999 708.418 685.296 706.603C676.172 705.878 666.341 705.697 656.03 707.094C646.599 708.393 637.161 711.47 628.417 716.566C618.931 721.836 610.348 730.459 605.095 742.295C602.813 748.284 601.718 754.374 601.666 760.291C601.627 765.211 602.249 769.281 603.093 772.776C603.781 775.711 604.551 778.234 605.367 780.527C606.181 782.827 607.043 784.888 607.979 786.864C609.85 790.816 611.998 794.464 615.123 798.481C615.449 798.909 615.787 799.344 616.138 799.786C617.691 801.733 619.637 803.347 621.763 804.575C623.886 805.799 626.188 806.646 628.452 807.12C632.985 808.074 637.328 807.539 640.302 806.279C642.768 805.232 644.447 803.739 645.552 802.073C646.656 800.408 647.189 798.563 647.328 796.663C647.464 794.771 647.212 792.822 646.67 790.864C646.127 788.905 645.3 786.935 644.221 784.968Z" fill="#547726"/>
<path fill-rule="evenodd" clip-rule="evenodd" d="M733.723 713.09C722.353 705.862 717.62 692.552 711.949 680.92C700.641 657.746 680.303 639.139 656.757 628.372C651.236 626.764 645.563 624.474 639.704 625.447C659.429 648.743 659.854 681.016 679.897 702.88C690.555 714.502 707.953 717.827 723.586 717.296C725.77 717.223 727.998 718.342 729.455 720.044" fill="#547726"/>
<path fill-rule="evenodd" clip-rule="evenodd" d="M374.296 443.045C374.296 443.045 375.275 442.306 377.016 440.944C378.752 439.586 381.246 437.601 384.237 435.035C387.222 432.473 390.707 429.322 394.371 425.621C398.032 421.915 401.872 417.647 405.558 412.892C408.877 408.664 412.166 403.453 414.818 397.294C417.066 392.726 418.31 386.331 417.929 378.708C417.12 370.977 413.45 364.239 407.928 359.061C404.043 355.986 400.46 353.908 397.317 352.529C394.174 351.151 391.468 350.465 389.219 350.191C384.836 349.425 381.527 349.156 379.502 349.008C375.286 348.712 370.865 349.326 366.929 350.73C362.987 352.138 359.529 354.314 356.838 356.973C354.148 359.623 352.204 362.738 351.097 366.059C349.991 369.372 349.714 372.88 350.443 376.463C351.172 380.046 352.69 382.862 354.687 385.034C356.689 387.203 359.161 388.727 361.728 389.696C364.295 390.666 366.936 391.086 369.367 391.094C371.803 391.099 374.031 390.698 376.033 390.001C378.11 389.27 380.394 387.576 383.286 385.897C384.277 385.293 385.215 384.408 386.146 383.535C387.068 382.661 387.986 381.804 388.94 381.305C390.283 379.989 392.76 380.2 394.626 381.64C395.886 382.697 396.819 384.248 397.448 385.957C398.076 387.673 398.407 389.535 398.491 391.292C398.529 391.994 398.526 392.692 398.491 393.373C398.26 397.855 397.219 402.286 395.924 406.296C394.041 412.172 391.562 417.479 389.032 422.063C386.499 426.641 383.912 430.505 381.664 433.613C379.419 436.712 377.513 439.054 376.207 440.639C374.903 442.215 374.196 443.041 374.296 443.045Z" fill="#547726"/>
</svg>
