<svg width="49" height="49" viewBox="0 0 49 49" fill="none" xmlns="http://www.w3.org/2000/svg">
<path d="M42.2273 17.1099C42.2071 15.5952 41.9236 14.0955 41.3893 12.6779C40.926 11.4822 40.2184 10.3963 39.3116 9.48958C38.4049 8.58284 37.319 7.87522 36.1233 7.41191C34.724 6.88663 33.2457 6.6026 31.7513 6.57191C29.8273 6.48591 29.2173 6.46191 24.3333 6.46191C19.4493 6.46191 18.8233 6.46191 16.9133 6.57191C15.4196 6.60282 13.942 6.88685 12.5433 7.41191C11.3474 7.87489 10.2613 8.5824 9.35457 9.48918C8.44779 10.396 7.74028 11.482 7.2773 12.6779C6.75096 14.0762 6.46755 15.5541 6.4393 17.0479C6.3533 18.9739 6.3273 19.5839 6.3273 24.4679C6.3273 29.3519 6.3273 29.9759 6.4393 31.8879C6.4693 33.3839 6.7513 34.8599 7.2773 36.2619C7.74106 37.4574 8.44909 38.5431 9.35617 39.4495C10.2633 40.3559 11.3494 41.0631 12.5453 41.5259C13.9402 42.0723 15.418 42.3767 16.9153 42.4259C18.8413 42.5119 19.4513 42.5379 24.3353 42.5379C29.2193 42.5379 29.8453 42.5379 31.7553 42.4259C33.2496 42.3965 34.728 42.1131 36.1273 41.5879C37.3227 41.1241 38.4083 40.4163 39.315 39.5096C40.2217 38.6029 40.9295 37.5173 41.3933 36.3219C41.9193 34.9219 42.2013 33.4459 42.2313 31.9479C42.3173 30.0239 42.3433 29.4139 42.3433 24.5279C42.3393 19.6439 42.3393 19.0239 42.2273 17.1099V17.1099ZM24.3213 33.7039C19.2133 33.7039 15.0753 29.5659 15.0753 24.4579C15.0753 19.3499 19.2133 15.2119 24.3213 15.2119C26.7735 15.2119 29.1252 16.186 30.8592 17.92C32.5932 19.654 33.5673 22.0057 33.5673 24.4579C33.5673 26.9101 32.5932 29.2619 30.8592 30.9958C29.1252 32.7298 26.7735 33.7039 24.3213 33.7039V33.7039ZM33.9353 17.0259C33.6521 17.0262 33.3716 16.9706 33.1099 16.8623C32.8482 16.7541 32.6104 16.5953 32.4102 16.395C32.2099 16.1948 32.0511 15.957 31.9429 15.6953C31.8346 15.4336 31.779 15.1531 31.7793 14.8699C31.7793 14.5869 31.835 14.3067 31.9433 14.0452C32.0516 13.7838 32.2104 13.5462 32.4105 13.3461C32.6106 13.146 32.8482 12.9873 33.1096 12.879C33.3711 12.7707 33.6513 12.7149 33.9343 12.7149C34.2173 12.7149 34.4975 12.7707 34.759 12.879C35.0204 12.9873 35.258 13.146 35.4581 13.3461C35.6582 13.5462 35.817 13.7838 35.9253 14.0452C36.0336 14.3067 36.0893 14.5869 36.0893 14.8699C36.0893 16.0619 35.1253 17.0259 33.9353 17.0259Z" fill="#707070"/>
<path d="M24.3213 30.4639C27.6383 30.4639 30.3273 27.7749 30.3273 24.4579C30.3273 21.1409 27.6383 18.4519 24.3213 18.4519C21.0043 18.4519 18.3153 21.1409 18.3153 24.4579C18.3153 27.7749 21.0043 30.4639 24.3213 30.4639Z" fill="#707070"/>
</svg>
