<svg width="339" height="348" viewBox="0 0 339 348" fill="none" xmlns="http://www.w3.org/2000/svg">
<path d="M169.5 0.300049C76.3008 0.300049 0.75 78.067 0.75 174C0.75 269.933 76.3008 347.7 169.5 347.7C262.699 347.7 338.25 269.933 338.25 174C338.25 78.067 262.699 0.300049 169.5 0.300049Z" fill="white"/>
<path d="M119.562 183.249C137.238 166.567 154.918 148.372 169.648 130.174C184.383 148.372 202.062 166.567 219.738 183.249H271.301C240.363 154.436 212.375 125.623 188.801 93.7776L169.648 68L150.5 95.2974C126.926 125.623 98.9375 155.952 68 183.249H119.562Z" fill="#8CC63F"/>
<path d="M119.562 280.3C137.238 263.618 154.918 245.423 169.648 227.225C184.383 245.423 202.062 263.618 219.738 280.3H271.301C240.363 251.487 212.375 222.677 188.801 190.832L169.648 165.051L150.5 190.832C126.926 221.158 98.9375 251.487 68 280.3H119.562Z" fill="#547726"/>
</svg>
