<svg width="311" height="34" viewBox="0 0 311 34" fill="none" xmlns="http://www.w3.org/2000/svg">
<path d="M8.3693 18.0937C11.2386 15.4745 14.1079 12.6177 16.5 9.76102C18.8921 12.6177 21.7614 15.4745 24.6307 18.0937H33C27.9772 13.571 23.4346 9.04531 19.6079 4.04755L16.5 0L13.3921 4.2851C9.56535 9.04531 5.0228 13.8086 0 18.0937H8.3693Z" fill="#8CC63F"/>
<path d="M8.3693 33.3305C11.2386 30.7114 14.1079 27.8546 16.5 24.9979C18.8921 27.8546 21.7614 30.7114 24.6307 33.3305H33C27.9772 28.8079 23.4346 24.2822 19.6079 19.2844L16.5 15.2369L13.3921 19.2844C9.56535 24.0446 5.0228 28.8079 0 33.3305H8.3693Z" fill="#547726"/>
<path d="M65.6897 33.1117H61.88C61.4527 33.1117 61.1159 33.003 60.866 32.7857C60.6125 32.5684 60.4531 32.2813 60.388 31.9165L59.2581 25.8011H49.0602L46.5252 31.9165C46.3876 32.227 46.1631 32.5064 45.8444 32.7547C45.533 32.9953 45.1817 33.1117 44.787 33.1117H40.9338L54.1591 3.80707H59.1712L65.6897 33.1117ZM50.5957 22.0914H58.5628L56.7086 12.0645C56.6 11.5795 56.495 11.0673 56.3899 10.5279C56.2922 9.98075 56.2016 9.37153 56.1147 8.69635C55.8829 9.37153 55.6439 9.99627 55.4049 10.5744C55.1731 11.1449 54.9559 11.6454 54.7531 12.08L50.5957 22.0914Z" fill="black"/>
<path d="M67.6795 33.1117L71.1126 3H75.6611L74.1401 16.4416C75.0382 15.0757 76.045 13.997 77.1676 13.1976C78.2866 12.4022 79.4744 12.0025 80.7311 12.0025C81.5423 12.0025 82.2738 12.1655 82.9329 12.4836C83.5992 12.7941 84.1642 13.2714 84.6277 13.9116C85.0912 14.5441 85.4461 15.3474 85.6996 16.3175C85.9604 17.2914 86.0907 18.4284 86.0907 19.7322C86.0907 20.9118 85.9749 22.0721 85.7431 23.209C85.5186 24.3382 85.1963 25.4092 84.7726 26.422C84.3561 27.4386 83.8636 28.3738 83.295 29.2314C82.7228 30.0812 82.0818 30.8146 81.3684 31.4354C80.6623 32.0563 79.909 32.5452 79.1087 32.8944C78.3156 33.2437 77.4899 33.4222 76.6316 33.4222C75.6357 33.4222 74.7485 33.2088 73.9663 32.7858C73.1913 32.3512 72.5394 31.773 72.0107 31.0474L71.8659 31.7303C71.7572 32.2193 71.5834 32.5685 71.3444 32.7858C71.1126 33.0031 70.736 33.1117 70.2145 33.1117H67.6795ZM78.9204 15.9294C78.3989 15.9294 77.8702 16.1234 77.3414 16.5037C76.8199 16.8762 76.3057 17.3962 75.806 18.0559C75.3026 18.7194 74.839 19.4994 74.4153 20.3996C73.9989 21.2999 73.6404 22.2622 73.3434 23.2866L72.7785 28.2535C73.2022 28.7502 73.6911 29.1033 74.2415 29.309C74.7992 29.5069 75.3497 29.6039 75.8929 29.6039C76.7222 29.6039 77.4754 29.3323 78.1526 28.7812C78.8371 28.2225 79.4201 27.5007 79.9054 26.6082C80.3979 25.7196 80.7745 24.7146 81.0353 23.5971C81.296 22.4795 81.4264 21.362 81.4264 20.2444C81.4264 18.7854 81.2018 17.7066 80.76 17.0004C80.3255 16.2864 79.7098 15.9294 78.9204 15.9294Z" fill="black"/>
<path d="M95.2344 12.3284L92.9022 33.1117H88.2958L90.6135 12.3284H95.2344ZM96.4077 6.25951C96.4077 6.69411 96.3208 7.10543 96.147 7.48571C95.9732 7.85822 95.7486 8.19193 95.4807 8.47908C95.2091 8.75847 94.894 8.98741 94.5391 9.16203C94.1914 9.32889 93.8293 9.41037 93.4527 9.41037C93.0833 9.41037 92.7284 9.32889 92.3807 9.16203C92.0331 8.98741 91.7289 8.75847 91.4681 8.47908C91.2074 8.19193 90.9937 7.85822 90.8308 7.48571C90.6751 7.10543 90.599 6.69411 90.599 6.25951C90.599 5.8249 90.6787 5.41746 90.8453 5.03331C91.0082 4.64139 91.2219 4.29991 91.4826 4.00889C91.7506 3.72174 92.0548 3.4928 92.3952 3.32594C92.7429 3.15132 93.0978 3.06207 93.4672 3.06207C93.8438 3.06207 94.2095 3.15132 94.5681 3.32594C94.923 3.4928 95.238 3.71398 95.5096 3.99336C95.7776 4.27275 95.9949 4.61034 96.1615 5.00226C96.3244 5.39806 96.4077 5.81714 96.4077 6.25951Z" fill="black"/>
<path d="M111.01 33.1117C110.449 33.1117 110.054 32.972 109.822 32.6927C109.598 32.4055 109.489 32.0408 109.489 31.6062L109.634 28.5795C108.707 30.0618 107.657 31.2414 106.491 32.1184C105.332 32.9876 104.101 33.4222 102.797 33.4222C101.986 33.4222 101.247 33.2592 100.581 32.941C99.9215 32.6228 99.3566 32.1455 98.8858 31.513C98.4222 30.8844 98.0637 30.0812 97.8138 29.1072C97.5603 28.1371 97.4372 26.9885 97.4372 25.6614C97.4372 24.4818 97.5459 23.3293 97.7704 22.2001C98.0021 21.0748 98.3245 20.0038 98.7409 18.9872C99.1538 17.9744 99.6463 17.0431 100.218 16.1933C100.798 15.3474 101.439 14.6101 102.145 13.9892C102.848 13.3684 103.601 12.8833 104.405 12.5302C105.205 12.181 106.034 12.0025 106.896 12.0025C107.765 12.0025 108.551 12.1732 109.257 12.5147C109.96 12.8484 110.579 13.3024 111.112 13.8806L112.372 3H116.949L113.502 33.1117H111.01ZM104.608 29.4797C105.107 29.4797 105.625 29.3012 106.158 28.9365C106.686 28.5639 107.201 28.0517 107.693 27.3998C108.186 26.7402 108.638 25.968 109.055 25.0871C109.478 24.1985 109.841 23.2401 110.141 22.2156L110.735 17.1711C110.308 16.6667 109.815 16.3136 109.257 16.1157C108.707 15.91 108.164 15.8053 107.635 15.8053C106.802 15.8053 106.045 16.0846 105.361 16.6434C104.684 17.1944 104.101 17.9123 103.608 18.8009C103.123 19.6934 102.746 20.6945 102.478 21.8121C102.217 22.9296 102.087 24.0472 102.087 25.1647C102.087 26.6237 102.308 27.7103 102.753 28.4242C103.195 29.1305 103.815 29.4797 104.608 29.4797Z" fill="black"/>
<path d="M134.359 17.14C134.359 18.0713 134.185 18.925 133.837 19.7011C133.497 20.4694 132.881 21.1562 131.983 21.7654C131.085 22.3785 129.868 22.9063 128.333 23.3486C126.805 23.7832 124.86 24.1247 122.495 24.3731V24.6369C122.495 27.9081 123.784 29.5417 126.363 29.5417C126.921 29.5417 127.413 29.4874 127.84 29.371C128.264 29.2585 128.637 29.1226 128.956 28.9674C129.282 28.8044 129.579 28.6221 129.839 28.4242C130.1 28.2185 130.336 28.0323 130.549 27.8654C130.77 27.7024 130.987 27.5627 131.201 27.4463C131.422 27.3338 131.657 27.2756 131.911 27.2756C132.056 27.2756 132.204 27.3144 132.36 27.3842C132.512 27.458 132.639 27.5705 132.737 27.7257L133.924 29.2623C133.258 29.9763 132.599 30.5972 131.954 31.1249C131.317 31.6526 130.665 32.0872 129.999 32.4287C129.332 32.7624 128.626 33.0108 127.884 33.1738C127.138 33.3367 126.323 33.4221 125.436 33.4221C124.306 33.4221 123.277 33.2126 122.35 32.8012C121.43 32.3899 120.645 31.8079 119.989 31.0628C119.33 30.31 118.823 29.402 118.468 28.3466C118.11 27.2833 117.932 26.0921 117.932 24.7766C117.932 23.6901 118.041 22.6191 118.265 21.5637C118.486 20.5082 118.805 19.5109 119.221 18.568C119.634 17.6173 120.141 16.7442 120.742 15.9449C121.351 15.1494 122.035 14.4626 122.799 13.8805C123.56 13.3023 124.396 12.8522 125.305 12.5301C126.222 12.2003 127.207 12.0334 128.26 12.0334C129.282 12.0334 130.173 12.1887 130.926 12.4991C131.686 12.8095 132.324 13.2131 132.838 13.7098C133.349 14.2065 133.729 14.7614 133.982 15.3706C134.232 15.972 134.359 16.5619 134.359 17.14ZM127.985 15.5258C127.355 15.5258 126.772 15.6655 126.232 15.9449C125.689 16.2165 125.204 16.6045 124.769 17.109C124.335 17.6057 123.951 18.2033 123.625 18.894C123.306 19.5885 123.053 20.3491 122.872 21.1756C124.436 20.9506 125.689 20.7022 126.638 20.4306C127.594 20.1628 128.333 19.8679 128.854 19.5459C129.376 19.216 129.716 18.8707 129.883 18.5059C130.057 18.1334 130.144 17.7415 130.144 17.3263C130.144 17.1206 130.1 16.915 130.013 16.7054C129.934 16.4881 129.81 16.298 129.637 16.1311C129.47 15.9565 129.253 15.8129 128.985 15.6965C128.713 15.584 128.38 15.5258 127.985 15.5258Z" fill="black"/>
<path d="M150.529 12.3284L148.197 33.1117H143.591L145.908 12.3284H150.529ZM151.703 6.25951C151.703 6.69411 151.616 7.10543 151.442 7.48571C151.268 7.85822 151.043 8.19193 150.775 8.47908C150.504 8.75847 150.189 8.98741 149.834 9.16203C149.486 9.32889 149.124 9.41037 148.748 9.41037C148.378 9.41037 148.023 9.32889 147.676 9.16203C147.328 8.98741 147.024 8.75847 146.763 8.47908C146.502 8.19193 146.289 7.85822 146.126 7.48571C145.97 7.10543 145.894 6.69411 145.894 6.25951C145.894 5.8249 145.974 5.41746 146.14 5.03331C146.303 4.64139 146.517 4.29991 146.777 4.00889C147.045 3.72174 147.35 3.4928 147.69 3.32594C148.038 3.15132 148.393 3.06207 148.762 3.06207C149.139 3.06207 149.504 3.15132 149.863 3.32594C150.218 3.4928 150.533 3.71398 150.804 3.99336C151.072 4.27275 151.29 4.61034 151.456 5.00226C151.619 5.39806 151.703 5.81714 151.703 6.25951Z" fill="black"/>
<path d="M152.906 33.1118L155.223 12.2974H157.614C158.106 12.2974 158.486 12.4293 158.758 12.6854C159.026 12.9454 159.164 13.3606 159.164 13.9272L159.033 16.6124C160.018 15.0602 161.108 13.9078 162.307 13.1511C163.502 12.3867 164.741 12.0025 166.015 12.0025C166.729 12.0025 167.377 12.1422 167.956 12.4216C168.543 12.6932 169.046 13.0968 169.463 13.6323C169.887 14.16 170.209 14.8119 170.433 15.588C170.665 16.364 170.781 17.2604 170.781 18.2732C170.781 18.5332 170.77 18.797 170.752 19.0648C170.73 19.3248 170.709 19.6003 170.68 19.8874L169.231 33.1118H164.552C164.802 30.8262 165.016 28.8899 165.19 27.3067C165.371 25.7235 165.516 24.4042 165.624 23.3487C165.74 22.2933 165.827 21.4667 165.885 20.8653C165.95 20.2677 166.001 19.8098 166.03 19.4994C166.066 19.189 166.088 18.9833 166.088 18.8785C166.095 18.7776 166.102 18.6923 166.102 18.6302C166.102 17.7299 165.946 17.0858 165.639 16.69C165.338 16.2864 164.871 16.0847 164.234 16.0847C163.712 16.0847 163.169 16.2515 162.611 16.5813C162.061 16.9034 161.532 17.3652 161.032 17.9628C160.529 18.5526 160.069 19.2666 159.656 20.1047C159.24 20.9429 158.896 21.8742 158.628 22.8986L157.57 33.1118H152.906Z" fill="black"/>
<path d="M182.36 28.8744C182.36 28.7812 182.36 28.6726 182.36 28.5484C182.36 28.4165 182.367 28.2225 182.389 27.9741C182.407 27.7258 182.436 27.3959 182.475 26.9807C182.523 26.5694 182.584 26.0417 182.664 25.3975L183.736 16.0691H181.91C181.686 16.0691 181.509 16.0031 181.375 15.8673C181.248 15.7238 181.186 15.5065 181.186 15.2154C181.186 15.2077 181.186 15.1805 181.186 15.1378C181.193 15.099 181.204 15.0098 181.215 14.8739C181.233 14.7304 181.259 14.517 181.288 14.2376C181.317 13.9504 181.36 13.5469 181.418 13.0269L184.359 12.4836L185.909 6.80276C185.985 6.53502 186.115 6.32935 186.3 6.1819C186.481 6.03833 186.705 5.9646 186.966 5.9646H189.472L188.719 12.4992H193.398L193.006 16.0691H188.299L187.256 25.1337C187.198 25.6847 187.147 26.1232 187.111 26.453C187.082 26.7751 187.057 27.0273 187.038 27.2136C187.017 27.3921 187.002 27.5162 186.995 27.5861C186.995 27.6598 186.995 27.7102 186.995 27.7413C186.995 28.2613 187.111 28.6687 187.343 28.9675C187.574 29.2585 187.9 29.4021 188.328 29.4021C188.596 29.4021 188.824 29.3672 189.008 29.2934C189.2 29.2236 189.363 29.146 189.501 29.0606C189.646 28.9791 189.769 28.9015 189.878 28.8278C189.983 28.7579 190.084 28.7191 190.182 28.7191C190.327 28.7191 190.435 28.7579 190.515 28.8278C190.602 28.9015 190.674 29.0102 190.732 29.1537L191.732 31.5906C191.044 32.2037 190.276 32.6616 189.429 32.972C188.588 33.2825 187.737 33.4377 186.879 33.4377C185.507 33.4377 184.42 33.0419 183.62 32.2425C182.816 31.447 182.396 30.3256 182.36 28.8744Z" fill="black"/>
<path d="M194.111 33.1117L197.544 3H202.194L200.731 15.8673C201.676 14.5558 202.701 13.5818 203.802 12.9493C204.91 12.3207 206.036 12.0025 207.177 12.0025C207.909 12.0025 208.571 12.1422 209.162 12.4216C209.759 12.6932 210.266 13.0967 210.683 13.6322C211.095 14.16 211.414 14.8119 211.639 15.588C211.87 16.364 211.986 17.2604 211.986 18.2732C211.986 18.5332 211.975 18.797 211.957 19.0648C211.936 19.3248 211.914 19.6003 211.885 19.8874L210.436 33.1117H205.772L207.22 19.8874C207.249 19.6391 207.271 19.4062 207.293 19.1889C207.311 18.9716 207.322 18.7699 207.322 18.5836C207.322 17.695 207.163 17.0547 206.844 16.6589C206.525 16.267 206.047 16.0691 205.41 16.0691C204.925 16.0691 204.425 16.2166 203.903 16.5037C203.389 16.7947 202.893 17.2099 202.411 17.7454C201.937 18.2732 201.491 18.9212 201.079 19.6856C200.662 20.4423 200.311 21.2843 200.021 22.2156L198.79 33.1117H194.111Z" fill="black"/>
<path d="M230.847 17.14C230.847 18.0713 230.673 18.925 230.325 19.7011C229.985 20.4694 229.369 21.1562 228.471 21.7654C227.573 22.3785 226.356 22.9063 224.821 23.3486C223.292 23.7832 221.348 24.1247 218.983 24.3731V24.6369C218.983 27.9081 220.272 29.5417 222.851 29.5417C223.408 29.5417 223.901 29.4874 224.328 29.371C224.752 29.2585 225.125 29.1226 225.443 28.9674C225.769 28.8044 226.066 28.6221 226.327 28.4242C226.588 28.2185 226.823 28.0323 227.037 27.8654C227.258 27.7024 227.475 27.5627 227.689 27.4463C227.91 27.3338 228.145 27.2756 228.398 27.2756C228.543 27.2756 228.692 27.3144 228.848 27.3842C229 27.458 229.126 27.5705 229.224 27.7257L230.412 29.2623C229.746 29.9763 229.087 30.5972 228.442 31.1249C227.805 31.6526 227.153 32.0872 226.486 32.4287C225.82 32.7624 225.114 33.0108 224.371 33.1738C223.625 33.3367 222.811 33.4221 221.923 33.4221C220.794 33.4221 219.765 33.2126 218.838 32.8012C217.918 32.3899 217.132 31.8079 216.477 31.0628C215.818 30.31 215.311 29.402 214.956 28.3466C214.597 27.2833 214.42 26.0921 214.42 24.7766C214.42 23.6901 214.529 22.6191 214.753 21.5637C214.974 20.5082 215.293 19.5109 215.709 18.568C216.122 17.6173 216.629 16.7442 217.23 15.9449C217.838 15.1494 218.523 14.4626 219.287 13.8805C220.048 13.3023 220.884 12.8522 221.793 12.5301C222.709 12.2003 223.694 12.0334 224.748 12.0334C225.769 12.0334 226.66 12.1887 227.413 12.4991C228.174 12.8095 228.811 13.2131 229.326 13.7098C229.836 14.2065 230.216 14.7614 230.47 15.3706C230.72 15.972 230.847 16.5619 230.847 17.14ZM224.473 15.5258C223.843 15.5258 223.26 15.6655 222.72 15.9449C222.177 16.2165 221.692 16.6045 221.257 17.109C220.823 17.6057 220.439 18.2033 220.113 18.894C219.794 19.5885 219.541 20.3491 219.359 21.1756C220.924 20.9506 222.177 20.7022 223.126 20.4306C224.082 20.1628 224.821 19.8679 225.342 19.5459C225.864 19.216 226.204 18.8707 226.371 18.5059C226.544 18.1334 226.631 17.7415 226.631 17.3263C226.631 17.1206 226.588 16.915 226.501 16.7054C226.421 16.4881 226.298 16.298 226.124 16.1311C225.958 15.9565 225.74 15.8129 225.472 15.6965C225.201 15.584 224.868 15.5258 224.473 15.5258Z" fill="black"/>
<path d="M240.962 3.80707H244.902C245.326 3.80707 245.663 3.92348 245.916 4.14854C246.166 4.36584 246.325 4.65299 246.394 5.00222L250.044 23.2711C250.168 23.9036 250.283 24.5399 250.392 25.1802C250.508 25.8243 250.617 26.5073 250.725 27.229C250.935 26.5073 251.174 25.8127 251.435 25.1492C251.703 24.4778 251.964 23.8531 252.217 23.2711L259.982 5.00222C260.105 4.71508 260.329 4.44345 260.648 4.19511C260.974 3.939 261.343 3.80707 261.749 3.80707H265.718L252.217 33.1117H247.756L240.962 3.80707Z" fill="black"/>
<path d="M271.894 12.3284L269.562 33.1117H264.956L267.273 12.3284H271.894ZM273.068 6.25951C273.068 6.69411 272.981 7.10543 272.807 7.48571C272.633 7.85822 272.408 8.19193 272.14 8.47908C271.869 8.75847 271.554 8.98741 271.199 9.16203C270.851 9.32889 270.489 9.41037 270.112 9.41037C269.743 9.41037 269.388 9.32889 269.041 9.16203C268.693 8.98741 268.389 8.75847 268.128 8.47908C267.867 8.19193 267.654 7.85822 267.491 7.48571C267.335 7.10543 267.259 6.69411 267.259 6.25951C267.259 5.8249 267.338 5.41746 267.505 5.03331C267.668 4.64139 267.882 4.29991 268.142 4.00889C268.41 3.72174 268.715 3.4928 269.055 3.32594C269.403 3.15132 269.758 3.06207 270.127 3.06207C270.504 3.06207 270.869 3.15132 271.228 3.32594C271.583 3.4928 271.898 3.71398 272.169 3.99336C272.437 4.27275 272.655 4.61034 272.821 5.00226C272.984 5.39806 273.068 5.81714 273.068 6.25951Z" fill="black"/>
<path d="M274.272 33.1118L276.589 12.2974H278.979C279.472 12.2974 279.852 12.4293 280.124 12.6854C280.392 12.9454 280.529 13.3606 280.529 13.9272L280.399 16.6124C281.384 15.0602 282.474 13.9078 283.673 13.1511C284.868 12.3867 286.106 12.0025 287.381 12.0025C288.095 12.0025 288.743 12.1422 289.322 12.4216C289.909 12.6932 290.412 13.0968 290.829 13.6323C291.252 14.16 291.575 14.8119 291.799 15.588C292.031 16.364 292.147 17.2604 292.147 18.2732C292.147 18.5332 292.136 18.797 292.118 19.0648C292.096 19.3248 292.074 19.6003 292.045 19.8874L290.597 33.1118H285.918C286.168 30.8262 286.382 28.8899 286.555 27.3067C286.737 25.7235 286.881 24.4042 286.99 23.3487C287.106 22.2933 287.193 21.4667 287.251 20.8653C287.316 20.2677 287.367 19.8098 287.396 19.4994C287.432 19.189 287.454 18.9833 287.454 18.8785C287.461 18.7776 287.468 18.6923 287.468 18.6302C287.468 17.7299 287.312 17.0858 287.004 16.69C286.704 16.2864 286.237 16.0847 285.599 16.0847C285.078 16.0847 284.535 16.2515 283.977 16.5813C283.427 16.9034 282.898 17.3652 282.398 17.9628C281.895 18.5526 281.435 19.2666 281.022 20.1047C280.605 20.9429 280.261 21.8742 279.993 22.8986L278.936 33.1118H274.272Z" fill="black"/>
<path d="M311 17.14C311 18.0713 310.826 18.925 310.479 19.7011C310.138 20.4694 309.522 21.1562 308.624 21.7654C307.726 22.3785 306.509 22.9063 304.974 23.3486C303.446 23.7832 301.501 24.1247 299.136 24.3731V24.6369C299.136 27.9081 300.426 29.5417 303.004 29.5417C303.562 29.5417 304.054 29.4874 304.481 29.371C304.905 29.2585 305.278 29.1226 305.597 28.9674C305.923 28.8044 306.22 28.6221 306.481 28.4242C306.741 28.2185 306.977 28.0323 307.19 27.8654C307.411 27.7024 307.628 27.5627 307.842 27.4463C308.063 27.3338 308.298 27.2756 308.552 27.2756C308.697 27.2756 308.845 27.3144 309.001 27.3842C309.153 27.458 309.28 27.5705 309.378 27.7257L310.565 29.2623C309.899 29.9763 309.24 30.5972 308.595 31.1249C307.958 31.6526 307.306 32.0872 306.64 32.4287C305.974 32.7624 305.267 33.0108 304.525 33.1738C303.779 33.3367 302.964 33.4221 302.077 33.4221C300.947 33.4221 299.919 33.2126 298.991 32.8012C298.072 32.3899 297.286 31.8079 296.63 31.0628C295.971 30.31 295.464 29.402 295.109 28.3466C294.751 27.2833 294.573 26.0921 294.573 24.7766C294.573 23.6901 294.682 22.6191 294.907 21.5637C295.127 20.5082 295.446 19.5109 295.863 18.568C296.275 17.6173 296.782 16.7442 297.384 15.9449C297.992 15.1494 298.676 14.4626 299.441 13.8805C300.201 13.3023 301.038 12.8522 301.947 12.5301C302.863 12.2003 303.848 12.0334 304.902 12.0334C305.923 12.0334 306.814 12.1887 307.567 12.4991C308.327 12.8095 308.965 13.2131 309.479 13.7098C309.99 14.2065 310.37 14.7614 310.623 15.3706C310.873 15.972 311 16.5619 311 17.14ZM304.626 15.5258C303.996 15.5258 303.413 15.6655 302.874 15.9449C302.33 16.2165 301.845 16.6045 301.411 17.109C300.976 17.6057 300.592 18.2033 300.266 18.894C299.948 19.5885 299.694 20.3491 299.513 21.1756C301.077 20.9506 302.33 20.7022 303.279 20.4306C304.235 20.1628 304.974 19.8679 305.495 19.5459C306.017 19.216 306.357 18.8707 306.524 18.5059C306.698 18.1334 306.785 17.7415 306.785 17.3263C306.785 17.1206 306.741 16.915 306.654 16.7054C306.575 16.4881 306.452 16.298 306.278 16.1311C306.111 15.9565 305.894 15.8129 305.626 15.6965C305.354 15.584 305.021 15.5258 304.626 15.5258Z" fill="black"/>
</svg>
