<svg width="282" height="464" viewBox="0 0 282 464" fill="none" xmlns="http://www.w3.org/2000/svg">
<path d="M112.694 251.887C151.326 215.426 189.967 175.661 222.161 135.887C254.365 175.661 293.005 215.426 331.637 251.887H444.332C376.715 188.913 315.544 125.939 264.021 56.3391L222.161 0L180.311 59.6609C128.787 125.939 67.6166 192.226 0 251.887H112.694Z" fill="#8CC63F" fill-opacity="0.11"/>
<path d="M112.694 464C151.326 427.539 189.967 387.774 222.161 348C254.365 387.774 293.005 427.539 331.637 464H444.332C376.715 401.026 315.544 338.061 264.021 268.461L222.161 212.113L180.311 268.461C128.787 334.739 67.6166 401.026 0 464H112.694Z" fill="#547726" fill-opacity="0.11"/>
</svg>
