<svg width="75" height="79" viewBox="0 0 75 79" fill="none" xmlns="http://www.w3.org/2000/svg">
<path d="M19.022 42.5167C25.5428 36.3624 32.065 29.6503 37.4993 22.9368C42.935 29.6503 49.4572 36.3624 55.978 42.5167H75C63.5868 31.8872 53.2616 21.2576 44.5648 9.50964L37.4993 0L30.4352 10.0703C21.7384 21.2576 11.4132 32.4464 0 42.5167H19.022Z" fill="#8CC63F" fill-opacity="0.11"/>
<path d="M19.022 78.32C25.5428 72.1656 32.065 65.4535 37.4993 58.74C42.935 65.4535 49.4572 72.1656 55.978 78.32H75C63.5868 67.6904 53.2616 57.0623 44.5648 45.3143L37.4993 35.8032L30.4352 45.3143C21.7384 56.5016 11.4132 67.6904 0 78.32H19.022Z" fill="#547726" fill-opacity="0.11"/>
</svg>
