<svg width="221" height="224" viewBox="0 0 221 224" fill="none" xmlns="http://www.w3.org/2000/svg">
<path d="M55.875 121.328C75.0352 103.77 94.1914 84.6094 110.156 65.4531C126.121 84.6094 145.277 103.77 164.434 121.328H220.309C186.785 90.9961 156.453 60.6641 130.91 27.1406L110.156 0L89.4023 28.7344C63.8594 60.6641 33.5273 92.5938 0 121.328H55.875Z" fill="#8CC63F"/>
<path d="M55.875 223.5C75.0352 205.941 94.1914 186.781 110.156 167.625C126.121 186.781 145.277 205.941 164.434 223.5H220.309C186.785 193.168 156.453 162.836 130.91 129.312L110.156 102.172L89.4023 129.312C63.8594 161.238 33.5273 193.168 0 223.5H55.875Z" fill="#547726"/>
</svg>
