<svg width="49" height="49" viewBox="0 0 49 49" fill="none" xmlns="http://www.w3.org/2000/svg">
<path d="M40.6667 6.5H8.66666C8.13622 6.5 7.62752 6.71071 7.25244 7.08579C6.87737 7.46086 6.66666 7.96957 6.66666 8.5V40.5C6.66666 41.0304 6.87737 41.5391 7.25244 41.9142C7.62752 42.2893 8.13622 42.5 8.66666 42.5H40.6667C41.1971 42.5 41.7058 42.2893 42.0809 41.9142C42.4559 41.5391 42.6667 41.0304 42.6667 40.5V8.5C42.6667 7.96957 42.4559 7.46086 42.0809 7.08579C41.7058 6.71071 41.1971 6.5 40.6667 6.5V6.5ZM36.5747 15.03L34.6427 16.88C34.561 16.9422 34.4981 17.0257 34.4607 17.1213C34.4233 17.2169 34.4129 17.3209 34.4307 17.422V31.024C34.4129 31.1251 34.4233 31.2291 34.4607 31.3247C34.4981 31.4203 34.561 31.5038 34.6427 31.566L36.5267 33.418V33.826H27.0447V33.418L28.9987 31.522C29.1927 31.33 29.1927 31.272 29.1927 30.98V19.984L23.7607 33.776H23.0247L16.7027 19.984V29.228C16.6777 29.4201 16.6964 29.6153 16.7573 29.7992C16.8183 29.9831 16.9199 30.1508 17.0547 30.29L19.5967 33.372V33.778H12.3887V33.372L14.9307 30.29C15.0645 30.1509 15.1638 29.9824 15.2208 29.7979C15.2777 29.6135 15.2907 29.4183 15.2587 29.228V18.54C15.2736 18.3937 15.2539 18.2459 15.2011 18.1087C15.1482 17.9714 15.0638 17.8485 14.9547 17.75L12.6947 15.03V14.624H19.7067L25.1267 26.51L29.8907 14.624H36.5767V15.03H36.5747Z" fill="#707070"/>
</svg>
