<svg width="48" height="49" viewBox="0 0 48 49" fill="none" xmlns="http://www.w3.org/2000/svg">
<path d="M43.186 14.906C42.9582 14.0608 42.513 13.29 41.8947 12.6704C41.2765 12.0507 40.5067 11.6037 39.662 11.374C36.53 10.514 24 10.5 24 10.5C24 10.5 11.472 10.486 8.33799 11.308C7.49384 11.5483 6.72563 12.0016 6.10712 12.6243C5.48861 13.247 5.04056 14.0183 4.80599 14.864C3.97999 17.996 3.97199 24.492 3.97199 24.492C3.97199 24.492 3.96399 31.02 4.78399 34.12C5.24399 35.834 6.59399 37.188 8.30999 37.65C11.474 38.51 23.97 38.524 23.97 38.524C23.97 38.524 36.5 38.538 39.632 37.718C40.477 37.4887 41.2475 37.0428 41.8673 36.4244C42.4871 35.806 42.9348 35.0365 43.166 34.192C43.994 31.062 44 24.568 44 24.568C44 24.568 44.04 18.038 43.186 14.906V14.906ZM19.992 30.51L20.002 18.51L30.416 24.52L19.992 30.51V30.51Z" fill="#707070"/>
</svg>
