<?xml version="1.0" standalone="no"?>
<!DOCTYPE svg PUBLIC "-//W3C//DTD SVG 20010904//EN"
 "http://www.w3.org/TR/2001/REC-SVG-20010904/DTD/svg10.dtd">
<svg version="1.0" xmlns="http://www.w3.org/2000/svg"
 width="500.000000pt" height="500.000000pt" viewBox="0 0 500.000000 500.000000"
 preserveAspectRatio="xMidYMid meet">
<metadata>
Created by potrace 1.14, written by Peter Selinger 2001-2017
</metadata>
<g transform="translate(0.000000,500.000000) scale(0.100000,-0.100000)"
fill="#000000" stroke="none">
<path d="M2360 3802 c-142 -200 -250 -335 -459 -572 -170 -193 -590 -614 -748
-750 l-110 -95 359 -3 360 -2 31 26 c97 79 529 521 655 669 l42 50 42 -50
c145 -170 500 -534 634 -651 l51 -44 361 2 361 3 -101 90 c-172 152 -597 581
-748 754 -154 178 -311 373 -485 604 -60 80 -112 146 -115 146 -3 0 -61 -80
-130 -177z"/>
<path d="M2350 2443 c-323 -424 -719 -862 -1124 -1243 -108 -101 -196 -185
-196 -187 0 -2 167 -3 370 -3 l371 0 231 228 c127 125 287 290 356 367 69 77
128 140 132 140 4 0 63 -63 132 -140 69 -77 229 -242 356 -367 l230 -228 374
0 373 1 -110 101 c-187 173 -540 526 -673 673 -209 230 -306 348 -557 678 -65
86 -122 157 -125 157 -3 0 -66 -80 -140 -177z"/>
</g>
</svg>
