<?xml version="1.0" standalone="no"?>
<!DOCTYPE svg PUBLIC "-//W3C//DTD SVG 20010904//EN"
 "http://www.w3.org/TR/2001/REC-SVG-20010904/DTD/svg10.dtd">
<svg version="1.0" xmlns="http://www.w3.org/2000/svg"
 width="696.000000pt" height="696.000000pt" viewBox="0 0 696.000000 696.000000"
 preserveAspectRatio="xMidYMid meet">
<metadata>
Created by potrace 1.14, written by Peter Selinger 2001-2017
</metadata>
<g transform="translate(0.000000,696.000000) scale(0.100000,-0.100000)"
fill="#000000" stroke="none">
<path d="M3367 6954 c-1 -1 -49 -4 -107 -8 -58 -3 -116 -8 -130 -11 -14 -2
-47 -6 -75 -9 -27 -3 -61 -8 -75 -10 -14 -3 -41 -7 -60 -10 -112 -17 -356 -77
-450 -111 -25 -9 -52 -18 -60 -20 -29 -6 -185 -68 -195 -76 -5 -5 -15 -9 -22
-9 -14 0 -229 -104 -315 -153 -120 -67 -238 -142 -238 -149 0 -4 -4 -8 -10 -8
-14 0 -185 -123 -210 -151 -3 -3 -15 -12 -28 -21 -66 -45 -297 -266 -407 -388
-59 -66 -144 -173 -214 -270 -34 -47 -65 -90 -70 -96 -27 -33 -168 -277 -220
-380 -64 -128 -147 -324 -175 -414 -10 -30 -22 -64 -27 -75 -6 -12 -11 -27
-12 -35 -2 -8 -6 -21 -10 -27 -5 -7 -6 -13 -3 -13 3 0 1 -12 -5 -27 -12 -32
-12 -31 -39 -140 -10 -45 -22 -96 -25 -115 -3 -18 -8 -40 -10 -48 -4 -16 -11
-51 -21 -109 -3 -18 -7 -42 -9 -52 -2 -10 -7 -49 -10 -86 -4 -37 -9 -77 -11
-88 -8 -39 -18 -252 -17 -375 1 -252 25 -488 74 -725 5 -27 14 -67 19 -87 36
-140 69 -259 79 -283 5 -11 21 -56 36 -100 74 -213 194 -464 319 -660 31 -49
62 -99 69 -110 16 -25 150 -208 157 -215 3 -3 16 -18 28 -34 106 -138 349
-381 500 -501 14 -11 49 -39 78 -62 29 -24 57 -43 63 -43 6 0 11 -4 11 -8 0
-11 197 -140 315 -207 164 -92 503 -245 544 -245 6 0 19 -4 29 -9 31 -17 246
-79 332 -95 14 -2 57 -11 95 -19 110 -24 205 -36 410 -54 194 -16 498 -3 715
32 139 22 139 22 215 40 79 17 74 16 175 44 249 67 560 200 779 332 41 24 89
53 107 64 18 11 41 27 51 35 10 9 21 15 24 15 3 0 19 10 35 22 16 13 70 53
119 90 50 37 92 70 95 73 3 3 37 32 75 65 81 69 259 246 328 325 77 89 87 102
131 160 22 30 47 61 54 69 17 18 173 255 198 301 10 19 22 37 27 38 4 2 7 9 7
16 0 6 11 28 25 49 14 20 24 37 21 37 -2 0 14 33 36 73 22 39 41 80 43 91 3
10 8 23 13 30 12 14 85 194 82 198 -2 2 3 14 10 28 8 14 15 27 15 30 1 3 18
57 39 120 34 103 97 346 110 425 8 47 16 93 21 123 2 15 7 50 10 77 3 28 8 70
10 95 19 164 24 423 12 600 -9 125 -22 247 -31 291 -3 14 -8 45 -10 70 -3 24
-5 44 -6 44 -1 0 -4 13 -6 29 -14 85 -93 394 -113 441 -5 11 -21 56 -36 100
-36 103 -101 261 -128 310 -6 11 -17 34 -24 50 -8 17 -19 39 -25 50 -6 11 -23
43 -36 70 -26 52 -161 276 -171 285 -4 3 -28 37 -54 75 -26 39 -59 84 -72 100
-26 32 -117 145 -150 184 -35 43 -290 295 -340 336 -27 22 -56 47 -64 55 -63
58 -418 303 -432 297 -4 -1 -15 5 -25 14 -11 9 -71 43 -134 76 -187 95 -371
170 -548 222 -57 17 -107 33 -112 36 -5 3 -21 7 -37 10 -27 4 -63 12 -73 15
-3 1 -8 2 -11 2 -4 -1 -22 3 -40 9 -19 5 -47 12 -64 14 -16 3 -41 8 -55 10
-14 3 -43 8 -65 10 -22 3 -56 7 -75 10 -114 17 -254 27 -413 29 -71 1 -129 1
-130 0z"/>
</g>
</svg>
